<svg xmlns="http://www.w3.org/2000/svg" viewBox="0 0 461.09 511.05"><g id="Layer_2" data-name="Layer 2"><g id="Layer_1-2" data-name="Layer 1"><path d="M207.52,511.05c-5.82-2.3-12-3.91-17.38-7-18.29-10.69-26.53-32.29-20.84-53,5.76-20.95,23.48-34.64,45-34.75,10.65-.06,21.29-.15,31.93,0,19.87.31,34.06,9.76,42.8,27.39,1.37,2.77,2.65,4.18,5.84,3.87,9.87-1,20.17-.25,29.56-2.87,19.77-5.52,33.17-23.75,34.54-44.85.54-8.25.09-16.57.09-25.52H336.18c-11.07,0-16.86-5.8-16.86-16.88q0-78.09,0-156.17c0-10.71,5.89-16.52,16.7-16.54,7.47,0,15,0,22.26,0,.38-.44.77-.68.79-.93,1.66-33.23-1.22-65.5-20.39-94.19-23.18-34.69-55.3-54.87-97-58.82-66.2-6.25-126.7,39.67-137.88,105.33-2.68,15.72-2.22,32-3.24,48.61,9.17,0,16.94,0,24.71,0,10.41,0,16.38,6,16.39,16.35q0,78.34,0,156.67c0,10.7-5.92,16.67-16.68,16.54-14.62-.19-29.34.4-43.82-1.14-39.68-4.23-74.68-39-80.1-78.4-6.68-48.59,19.83-91,66.34-106,2.87-.93,3.71-2.27,3.79-5.23.37-15.11,0-30.33,1.76-45.29,4.51-38.3,21.78-70.52,50.15-96.43C156.24,11.51,195.72-2.24,240.5.3,312,4.35,373,58.63,386.35,129c3.38,17.84,2.57,35.75,2.79,53.68,0,1.48,0,3,0,4.64C413,193.83,432,207,445.53,227.55a92.69,92.69,0,0,1,15.39,57.7c-2.15,37.45-27.51,74.4-71.78,86.48,0,7.59-.22,15.36,0,23.12a80.44,80.44,0,0,1-67.43,81.61c-8.8,1.42-17.9.87-26.84,1.52-1.58.11-3.93,1.29-4.45,2.58-6.62,16.14-18.27,26.16-35.36,29.82-.26.05-.45.44-.68.67ZM349.43,345c10.21-.66,20-.22,29.35-2.09,35.62-7.12,58.61-42,50.88-76.36-8.15-36.25-40.21-57-80.23-51.21Zm-238.07-.89V214.26c-8.65.39-17,.26-25.18,1.24-25.8,3.08-47.31,22.09-54.08,47.26a65.14,65.14,0,0,0,22.78,67.78C71.59,343.7,90.87,345.55,111.36,344.09ZM230,481.12v0c5.48,0,11,.21,16.44-.05,10.11-.47,17-7.89,16.93-17.84-.08-9.35-7.49-16.82-17.28-17-10.46-.19-20.94-.24-31.39,0-10.19.26-17.11,7.59-17.18,17.58-.06,9.53,7.48,17,17.53,17.28C220.05,481.22,225,481.12,230,481.12Z"></path></g></g></svg>