<svg xmlns="http://www.w3.org/2000/svg" width="512" height="512" viewBox="0 0 512 512" fill="none"><g clip-path="url(#clip0_47_33)"><path d="M415.51 445.936L396.392 388.575C389.711 368.549 372.667 353.767 351.889 349.985L296.701 339.943V335.666C306.305 330.091 314.662 322.634 321.318 313.806H337.991C351.65 313.806 362.765 302.691 362.765 289.032V189.936C362.765 130.742 314.604 82.5807 255.41 82.5807C196.217 82.5807 148.056 130.742 148.056 189.936V247.742C148.056 263.664 159.377 276.984 174.391 280.089C179.023 303.822 193.855 323.906 214.12 335.666V339.943L158.923 349.985C138.154 353.767 121.101 368.549 114.429 388.575L111.126 398.493L82.9986 370.366C79.7779 367.145 79.7779 361.901 82.9986 358.681L115.618 326.07L54.3926 264.844L17.5286 301.708C6.61148 312.626 0.599609 327.143 0.599609 342.586C0.599609 358.028 6.61148 372.538 17.5286 383.455L129.136 495.063C140.054 505.98 154.571 512 170.014 512C185.456 512 199.966 505.98 210.627 495.31L250.852 458.455L238.308 445.936H415.51ZM346.249 289.032C346.249 293.591 342.541 297.29 337.991 297.29H331.046C333.441 291.832 335.258 286.076 336.43 280.089C339.965 279.354 343.218 277.95 346.249 276.183V289.032ZM337.991 261.962V233.522C342.905 236.387 346.249 241.656 346.249 247.742C346.249 253.828 342.905 259.097 337.991 261.962ZM172.83 261.962C167.916 259.097 164.572 253.828 164.572 247.742C164.572 241.656 167.916 236.387 172.83 233.522V261.962ZM172.83 206.452V215.882C169.89 216.65 167.132 217.806 164.572 219.301V189.936C164.572 139.85 205.325 99.0968 255.41 99.0968C305.496 99.0968 346.249 139.85 346.249 189.936V219.301C343.689 217.806 340.931 216.642 337.991 215.882V206.452H329.733C305.314 206.452 282.357 196.938 265.081 179.671L255.41 170.001L245.74 179.671C228.464 196.938 205.507 206.452 181.088 206.452H172.83ZM189.346 264.258V222.654C214.145 220.788 237.267 210.556 255.41 193.305C273.553 210.556 296.676 220.796 321.475 222.654V264.258C321.475 276.298 318.188 287.562 312.54 297.29H255.41V313.806H298.963C287.32 324.055 272.1 330.323 255.41 330.323C218.984 330.323 189.346 300.684 189.346 264.258ZM280.185 343.032V343.42L255.41 368.194L230.636 343.42V343.032C238.465 345.493 246.781 346.839 255.41 346.839C264.04 346.839 272.356 345.493 280.185 343.032ZM130.086 393.794C134.851 379.491 147.032 368.929 161.871 366.22L219.595 355.733L255.41 391.548L291.217 355.741L348.933 366.229C363.773 368.937 375.953 379.491 380.718 393.802L392.602 429.419H221.792L189.627 397.254L153.886 429.585C150.773 432.714 145.33 432.714 142.209 429.585L124.173 411.549L130.086 393.794ZM54.3844 288.198L92.2559 326.07L83.2876 335.038L45.4161 297.166L54.3844 288.198ZM199.19 483.402C191.394 491.181 181.022 495.484 169.997 495.484C158.973 495.484 148.601 491.181 140.797 483.386L29.189 371.786C21.3934 363.991 17.0992 353.619 17.0992 342.594C17.0992 331.561 21.3934 321.189 29.189 313.394L33.731 308.852L71.6024 346.723L71.3052 347.02C61.6515 356.682 61.6515 372.397 71.3052 382.059L130.524 441.278C135.206 445.952 141.424 448.537 148.047 448.537C154.67 448.537 160.889 445.96 165.265 441.567L165.885 441.014L203.93 479.059L199.19 483.402ZM216.119 467.877L178.156 429.915L189.065 420.055L226.961 457.951L216.119 467.877Z" fill="black"></path><path d="M486.635 0H371.022C357.363 0 346.248 11.1154 346.248 24.7742V90.8387C346.248 104.498 357.363 115.613 371.022 115.613H393.08L384.541 165.417L464.231 115.613H486.635C500.294 115.613 511.409 104.498 511.409 90.8387V24.7742C511.409 11.1154 500.294 0 486.635 0ZM494.893 90.8387C494.893 95.3889 491.185 99.0968 486.635 99.0968H459.491L407.044 131.873L412.668 99.0968H371.022C366.472 99.0968 362.764 95.3889 362.764 90.8387V24.7742C362.764 20.224 366.472 16.5161 371.022 16.5161H486.635C491.185 16.5161 494.893 20.224 494.893 24.7742V90.8387Z" fill="black"></path><path d="M478.378 33.0322H379.281V49.5484H478.378V33.0322Z" fill="black"></path><path d="M445.346 66.0645H379.281V82.5806H445.346V66.0645Z" fill="black"></path><path d="M478.377 66.0645H461.861V82.5806H478.377V66.0645Z" fill="black"></path><path d="M255.409 24.7742C147.509 24.7742 54.5646 99.4106 30.4015 203.52L14.7524 177.433L0.589844 185.93L29.6169 234.298L77.9844 205.271L69.4869 191.108L47.1075 204.536C70.5109 109.295 156.155 41.2903 255.409 41.2903C277.103 41.2903 298.508 44.5109 319.029 50.8697L323.918 35.0968C301.811 28.2426 278.763 24.7742 255.409 24.7742Z" fill="black"></path><path d="M507.396 182.85L459.028 153.823L430.01 202.199L444.172 210.696L458.624 186.608C466.229 208.863 470.119 232.142 470.119 256C470.119 305.111 453.107 353.123 422.23 391.185L435.055 401.59C468.319 360.597 486.635 308.885 486.635 256C486.635 230.739 482.564 206.072 474.628 182.454L498.898 197.013L507.396 182.85Z" fill="black"></path></g><defs><clipPath id="clip0_47_33"><rect width="512" height="512" fill="white"></rect></clipPath></defs></svg>