<svg xmlns="http://www.w3.org/2000/svg" width="512" height="512" viewBox="0 0 512 512" fill="none"><g clip-path="url(#clip0_48_149)"><path d="M495.484 272.516C495.484 261.764 488.556 252.68 478.968 249.261V185.096C478.968 180.753 477.209 176.491 474.129 173.419L408.064 107.355L413.614 101.805C418.412 97.0075 421.162 90.368 421.162 83.5799C421.162 69.3677 409.6 57.8064 395.388 57.8064C388.501 57.8064 382.027 60.4821 377.163 65.3543L371.613 70.9037L305.549 4.83923C302.427 1.71768 298.282 0 293.872 0C277.537 0 264.258 13.279 264.258 29.6134C264.258 33.9572 266.017 38.2183 269.098 41.2903L285.614 57.8064L236.065 107.355L371.613 242.903L421.162 193.354L437.678 209.87C440.799 212.992 444.945 214.71 449.355 214.71C454.078 214.71 458.488 213.496 462.452 211.522V247.742H437.678C424.019 247.742 412.904 258.857 412.904 272.516V282.294C410.311 281.369 407.552 280.774 404.646 280.774C390.987 280.774 379.871 291.89 379.871 305.548V348.259C379.871 361.199 383.645 373.545 390.665 384.058C384.273 388.377 379.871 395.603 379.871 403.861V495.484H330.323V411.334C330.323 401.4 324.493 392.844 315.937 388.905C325.244 377.435 330.323 363.239 330.323 348.259V272.516C330.323 258.857 319.208 247.742 305.549 247.742H272.517C258.858 247.742 247.742 258.857 247.742 272.516V282.294C245.149 281.369 242.391 280.774 239.484 280.774C225.825 280.774 214.71 291.89 214.71 305.548V348.259C214.71 361.199 218.484 373.554 225.512 384.066C219.112 388.385 214.71 395.611 214.71 403.861V495.484H165.162V411.334C165.162 401.4 159.332 392.844 150.776 388.905C160.083 377.435 165.162 363.239 165.162 348.259V272.516C165.162 258.857 154.046 247.742 140.388 247.742H107.355C93.6964 247.742 82.5811 258.857 82.5811 272.516V282.294C79.9881 281.369 77.2299 280.774 74.323 280.774C60.6642 280.774 49.5488 291.89 49.5488 305.548V348.259C49.5488 361.191 53.3228 373.545 60.3421 384.058C53.9421 388.377 49.5488 395.603 49.5488 403.861V512H495.484V411.334C495.484 401.4 489.654 392.844 481.099 388.905C490.406 377.435 495.484 363.239 495.484 348.259V272.516ZM66.065 305.548C66.065 300.99 69.7728 297.29 74.323 297.29C78.8732 297.29 82.5811 300.99 82.5811 305.548V330.323H99.0972V272.516C99.0972 267.958 102.805 264.258 107.355 264.258H140.388C144.938 264.258 148.646 267.958 148.646 272.516V348.259C148.646 361.117 143.641 373.207 134.541 382.291L131.304 385.528L78.2869 380.226C70.417 371.406 66.065 360.175 66.065 348.259V305.548ZM148.646 495.484H66.065V403.861C66.065 399.74 69.4095 396.569 74.2817 396.428L141.213 403.126C145.45 403.547 148.646 407.081 148.646 411.334V495.484ZM231.226 305.548C231.226 300.99 234.934 297.29 239.484 297.29C244.035 297.29 247.742 300.99 247.742 305.548V330.323H264.258V272.516C264.258 267.958 267.966 264.258 272.517 264.258H305.549C310.099 264.258 313.807 267.958 313.807 272.516V348.259C313.807 361.117 308.802 373.207 299.702 382.291L296.465 385.528L243.448 380.226C235.578 371.406 231.226 360.175 231.226 348.259V305.548ZM231.226 403.861C231.226 399.74 234.34 396.569 239.443 396.428L306.375 403.126C310.611 403.547 313.807 407.081 313.807 411.334V495.484H231.226V403.861ZM388.84 77.0312C390.59 75.2805 392.911 74.3226 395.388 74.3226C400.492 74.3226 404.646 78.4764 404.646 83.5799C404.646 86.016 403.655 88.4026 401.937 90.1285L396.388 95.6779L383.29 82.5806L388.84 77.0312ZM371.613 219.549L259.419 107.355L297.291 69.4834L409.485 181.677L371.613 219.549ZM449.355 198.194L280.775 29.6134C280.775 22.3959 286.646 16.5161 293.872 16.5161L462.452 185.096C462.452 192.314 456.581 198.194 449.355 198.194ZM396.388 305.548C396.388 300.99 400.095 297.29 404.646 297.29C409.196 297.29 412.904 300.99 412.904 305.548V330.323H429.42V272.516C429.42 267.958 433.128 264.258 437.678 264.258H470.71C475.26 264.258 478.968 267.958 478.968 272.516V348.259C478.968 361.117 473.964 373.207 464.863 382.291L461.626 385.528L408.609 380.226C400.74 371.406 396.388 360.175 396.388 348.259V305.548ZM478.968 495.484H396.388V403.861C396.388 399.74 399.963 396.569 404.604 396.428L471.536 403.126C475.772 403.547 478.968 407.081 478.968 411.334V495.484Z" fill="black"></path><path d="M49.5479 214.71H198.193V165.161H214.709V198.194H231.225V132.129C231.225 123.02 223.818 115.613 214.709 115.613H148.645V107.355C148.645 93.696 137.529 82.5807 123.87 82.5807C110.212 82.5807 99.0963 93.696 99.0963 107.355V115.613H33.0318C23.9231 115.613 16.5156 123.02 16.5156 132.129V148.645C16.5156 157.754 23.9231 165.161 33.0318 165.161H49.5479V214.71ZM181.677 198.194H66.064V165.161H181.677V198.194ZM115.612 107.355C115.612 102.796 119.32 99.0968 123.87 99.0968C128.421 99.0968 132.129 102.796 132.129 107.355V115.613H115.612V107.355ZM33.0318 132.129H214.709V148.645H33.0318V132.129Z" fill="black"></path></g><defs><clipPath id="clip0_48_149"><rect width="512" height="512" fill="white"></rect></clipPath></defs></svg>