<svg xmlns="http://www.w3.org/2000/svg" width="512" height="512" viewBox="0 0 512 512" fill="none"><path d="M216 192V184H200V192C200 196.416 196.408 200 192 200C187.592 200 184 196.416 184 192V184H168V192C168 205.232 178.768 216 192 216C205.232 216 216 205.232 216 192Z" fill="black"></path><path d="M24 120H40V136H24V120Z" fill="black"></path><path d="M456 488H440V392H392V488H376V424H328V488H312V468.488C312 453.216 309.712 438.352 305.632 424.136L509.504 322.2L477.656 290.352L466.344 301.664L482.496 317.816L300.416 408.864C282.872 364.816 246.512 329.456 200 314.224V309.44L212.856 311.584C214.504 311.856 216.168 312 217.832 312C234.472 312 248 298.472 248 281.832V275.648L280.808 308.456L289.56 299.704C296.032 293.232 305.672 291.312 314.112 294.832C322.552 298.336 328 306.496 328 315.632V328H392V315.624C392 306.488 397.448 298.328 405.88 294.824C414.328 291.328 423.976 293.232 430.44 299.696L439.192 308.448L484.448 263.192L475.696 254.44C469.224 247.968 467.312 238.328 470.824 229.88C474.328 221.44 482.488 216 491.624 216H504V152H491.624C482.488 152 474.328 146.552 470.824 138.12C467.32 129.664 469.232 120.024 475.696 113.56L484.448 104.808L439.192 59.552L430.44 68.304C423.968 74.784 414.328 76.704 405.888 73.176C397.448 69.672 392 61.504 392 52.376V40H328V52.376C328 61.512 322.552 69.672 314.12 73.176C305.672 76.68 296.024 74.776 289.56 68.304L280.808 59.552L250.712 89.648C247.28 88.68 243.736 88 240 88H232V56H264C272.824 56 280 48.824 280 40V24C280 15.176 272.824 8 264 8H40C31.176 8 24 15.176 24 24V104H40V56H72V96C72 101.448 73.896 106.424 76.968 110.456C53.688 129.352 40 157.56 40 187.944C40 222.84 58.592 255.68 88.52 273.64L120 292.528V314.224C53.792 335.912 8 398.392 8 468.488V504H504V360H456V488ZM408 408H424V488H408V408ZM344 440H360V488H344V440ZM296 468.488V488H264V424H248V488H168V454.776L213.336 447.216L233.736 406.416L216.224 388.904L248 382.552V360.376C277.728 387.56 296 426.504 296 468.488ZM88 347.592C93.176 344.04 98.64 340.88 104.288 338C104.696 350.176 106.376 362.112 109.248 373.696L88 369.448V347.592ZM127.376 328.632L143.392 336.64L121.136 349.992C120.456 344.088 120 338.144 120 332.12V331.08C122.416 330.184 124.888 329.4 127.376 328.632ZM124.04 366.904L140.008 357.32L143.728 368.472L136.624 402.208C130.976 391.024 126.824 379.168 124.04 366.904ZM183.376 402.208L176.272 368.472L179.992 357.32L195.96 366.904C193.176 379.168 189.024 391.024 183.376 402.208ZM158.488 376H161.512L171.232 422.184C167.744 427.08 164.072 431.864 159.992 436.384C155.92 431.864 152.248 427.088 148.76 422.192L158.488 376ZM165.936 348.888L162.232 360H157.768L154.064 348.888L160 345.328L165.936 348.888ZM202.88 398.192L214.264 409.576L202.664 432.776L180.496 436.472C189.608 424.616 197.208 411.816 202.88 398.192ZM215.712 338C221.36 340.88 226.824 344.048 232 347.592V369.448L210.752 373.696C213.624 362.104 215.304 350.176 215.712 338ZM192.624 328.632C195.104 329.4 197.576 330.184 200 331.072V332.112C200 338.136 199.544 344.088 198.872 349.984L176.616 336.632L192.624 328.632ZM117.12 398.192C122.792 411.816 130.392 424.616 139.504 436.48L117.336 432.784L105.736 409.584L117.12 398.192ZM215.504 295.808L179.44 289.8C174.472 288.968 169.968 286.648 166.408 283.096L157.656 274.344L146.344 285.656L155.096 294.408C161.024 300.328 168.528 304.2 176.808 305.576L184 306.776V315.056L160 327.056L136 315.056V236L111.472 217.6C106.792 214.096 104 208.504 104 202.664C104 192.376 112.376 184 122.664 184H136V176C136 162.768 146.768 152 160 152H192.2C199.512 161.656 210.976 168 223.992 168H232.296C233.032 183.72 237.128 198.968 244.664 212.72L232 219.056V232H184V240C184 262.056 201.944 280 224 280H232V281.832C232 290.432 224.112 297.272 215.504 295.808ZM232 264H224C213.568 264 204.672 257.312 201.368 248H232V264ZM280.92 82.056C291.856 91.128 306.904 93.48 320.256 87.952C333.56 82.424 342.512 70.12 343.832 56H376.168C377.488 70.128 386.448 82.424 399.752 87.952C413.088 93.472 428.136 91.128 439.08 82.056L461.944 104.92C452.872 115.864 450.52 130.92 456.056 144.256C461.576 157.552 473.88 166.512 488.008 167.824V200.168C473.88 201.48 461.576 210.44 456.056 223.736C450.52 237.072 452.872 252.128 461.944 263.072L439.08 285.936C428.144 276.864 413.08 274.496 399.744 280.04C386.44 285.568 377.488 297.872 376.168 311.992H343.832C342.512 297.864 333.552 285.568 320.248 280.04C306.912 274.52 291.848 276.864 280.92 285.936L248 253.024V228.944L267.68 219.104L262.656 211.568C253.808 198.296 248.864 183.024 248.144 167.16C266.304 163.384 280 147.264 280 128C280 115.688 274.288 104.8 265.52 97.456L280.92 82.056ZM264 128C264 141.232 253.232 152 240 152H224C210.768 152 200 141.232 200 128C200 123.584 203.592 120 208 120C212.408 120 216 123.584 216 128V136H232V128C232 121.832 229.592 116.256 225.76 112C227.84 109.688 229.464 106.992 230.528 104H240C253.232 104 264 114.768 264 128ZM40 24H264V40H40V24ZM216 56V96C216 100.416 212.408 104 208 104H96C91.592 104 88 100.416 88 96V56H216ZM96.76 259.92C71.616 244.832 56 217.256 56 187.944C56 160.56 69.28 135.304 91.52 119.544C92.976 119.824 94.464 120 96 120H185.472C184.576 122.512 184 125.184 184 128C184 130.736 184.28 133.416 184.808 136H160C140.664 136 124.488 149.792 120.792 168.048C102.544 169.024 88 184.176 88 202.664C88 213.512 93.184 223.88 101.864 230.4L120 244V273.872L96.76 259.92ZM24 468.488C24 426.504 42.272 387.568 72 360.384V382.56L103.776 388.92L86.264 406.432L106.664 447.232L152 454.776V488H72V424H56V488H24V468.488ZM472 376H488V488H472V376Z" fill="black"></path><path d="M360 232C386.472 232 408 210.472 408 184C408 157.528 386.472 136 360 136C333.528 136 312 157.528 312 184C312 210.472 333.528 232 360 232ZM360 152C377.648 152 392 166.352 392 184C392 201.648 377.648 216 360 216C342.352 216 328 201.648 328 184C328 166.352 342.352 152 360 152Z" fill="black"></path><path d="M360 264C404.112 264 440 228.112 440 184C440 139.888 404.112 104 360 104C315.888 104 280 139.888 280 184C280 228.112 315.888 264 360 264ZM360 120C395.288 120 424 148.712 424 184C424 219.288 395.288 248 360 248C324.712 248 296 219.288 296 184C296 148.712 324.712 120 360 120Z" fill="black"></path><path d="M360 296C364.418 296 368 292.418 368 288C368 283.582 364.418 280 360 280C355.582 280 352 283.582 352 288C352 292.418 355.582 296 360 296Z" fill="black"></path><path d="M432 248C429.952 248 427.904 248.784 426.344 250.344C423.216 253.472 423.216 258.536 426.344 261.656C427.904 263.216 429.952 264 432 264C434.048 264 436.096 263.216 437.656 261.656C440.784 258.528 440.784 253.464 437.656 250.344C436.096 248.784 434.048 248 432 248Z" fill="black"></path><path d="M464 192C468.418 192 472 188.418 472 184C472 179.582 468.418 176 464 176C459.582 176 456 179.582 456 184C456 188.418 459.582 192 464 192Z" fill="black"></path><path d="M432 120C434.048 120 436.096 119.216 437.656 117.656C440.784 114.528 440.784 109.464 437.656 106.344C436.096 104.784 434.048 104 432 104C429.952 104 427.904 104.784 426.344 106.344C423.216 109.472 423.216 114.536 426.344 117.656C427.904 119.216 429.952 120 432 120Z" fill="black"></path><path d="M360 88C364.418 88 368 84.4183 368 80C368 75.5817 364.418 72 360 72C355.582 72 352 75.5817 352 80C352 84.4183 355.582 88 360 88Z" fill="black"></path></svg>