<svg xmlns="http://www.w3.org/2000/svg" viewBox="0 0 511.06 446.97"><g id="Layer_2" data-name="Layer 2"><g id="Layer_1-2" data-name="Layer 1"><path d="M511.06,435.89c-3.89,8.42-10.5,11.28-19.65,11.07-19.12-.45-38.25-.12-57.38-.14C423,446.81,417,441,417,430c-.07-25.78-.15-51.57,0-77.35.14-21.06,10-35.92,29.19-44.75,1.27-.59,2.77-2.51,2.77-3.81Q449.09,216,449,128a4.8,4.8,0,0,0-.34-.93c-1.3.33-2.69.6-4,1-7.87,2.58-15.64,5.52-23.63,7.68-4.63,1.26-6.06,3.31-6,8.15.22,38.59-.44,77.2.43,115.77.3,13.52-4.14,22.7-14.16,31.34-46,39.73-99.31,58.3-159.79,54.66-54.17-3.26-100.73-24.72-139.73-62.51C97.41,279,96,274.09,96,268.32c.06-41.75,0-83.5.12-125.26,0-3.91-1-5.67-4.89-6.95C64.54,127.44,38,118.42,11.43,109.57,4.8,107.36.61,103.15.06,96c-.58-7.47,3.36-13,11.18-15.65Q53.45,66.18,95.71,52.15,171.94,26.73,248.16,1.26a22.41,22.41,0,0,1,15,.07q117.51,39.26,235.1,78.26a21.88,21.88,0,0,1,12.79,10.87v9c-3.28,6.51-8.84,9.9-15.66,11.73-3.68,1-7.2,2.55-10.9,3.41-4.2,1-5.58,3-5.56,7.51.19,59.69.12,119.38.12,179.07v5.61c13.34,5.09,23.06,13.89,28.55,27,1.39,3.32,2.31,6.84,3.45,10.26ZM384.72,148.16c-2.38.7-4,1.12-5.51,1.63-38.66,12.87-77.35,25.68-116,38.69a22.77,22.77,0,0,1-15.47,0c-26.52-9-53.13-17.76-79.71-26.61L126.79,148.1a35.79,35.79,0,0,0-.46,3.84c0,36.59-.06,73.18.11,109.76a8.88,8.88,0,0,0,2.82,5.81c34.37,30.79,74.84,47.07,120.81,48.32,49.35,1.34,92.95-14.5,130.42-46.9a11,11,0,0,0,4.32-9.3c-.16-35.09-.09-70.18-.09-105.27ZM62.94,94.86c2.73,1,4.42,1.68,6.14,2.25q90.63,30.18,181.23,60.43a15.31,15.31,0,0,0,10.47,0q77.36-25.95,154.8-51.67L448.08,95c-1.8-.73-2.69-1.16-3.63-1.47Q351.75,62.61,259,31.82a12.87,12.87,0,0,0-7.54.25q-62.55,20.63-125,41.53C105.57,80.57,84.69,87.58,62.94,94.86Zm418,321.71c.09-1.39.21-2.37.21-3.34,0-20.11.07-40.23,0-60.34-.05-10.73-7.09-18.15-17-18.2-10.16-.06-17,7.35-17,18.48q0,29.43,0,58.85c0,1.44.18,2.89.29,4.55Z"></path></g></g></svg>