<svg xmlns="http://www.w3.org/2000/svg" viewBox="0 0 509.37 511.08"><g id="Layer_2" data-name="Layer 2"><g id="Layer_1-2" data-name="Layer 1"><path d="M11.08,511.08C2.54,507.29-.61,500.72.1,491.51c2.6-34.18,18.55-60,47.79-77.77,1.27-.77,2.58-1.46,4.22-2.39-.73-1.21-1.32-2.31-2-3.33-20.71-29.9-8.25-70.31,25.84-83.18,3.27-1.23,4.19-2.65,4.15-6-.19-14.14-.11-28.28-.07-42.42,0-9.75,6.12-15.88,15.85-15.88q68.64,0,137.27,0h6.27V229.75c-1.47-.06-2.91-.15-4.35-.18-7.71-.2-14.18-4.49-14.91-12-1.09-11.26-5.85-18.63-16.45-23.13-4.09-1.74-7.11-2.75-11.43-1.27-19.37,6.63-21.69,5.64-31.86-11.89-4.74-8.19-9.52-16.37-14.2-24.6-5.05-8.87-4.29-15.72,3.92-21.94,7.71-5.83,10.88-12.39,10.11-22.26-.47-6.13-1.39-10.76-6.53-14.27a43.7,43.7,0,0,1-5.61-4.94c-5.24-5.16-6.56-11.78-3-18.21Q155,57.18,165.55,39.66c3.81-6.33,10.81-9.22,17.75-6,10.23,4.71,18.78,3.86,27.87-2.8,3.76-2.76,6.53-4.92,6.86-9.69a45.45,45.45,0,0,1,1.49-6.8C221.94,3.7,226.44,0,237.14,0c12.14,0,24.29,0,36.43,0,8.68,0,14.82,4.28,15.82,12.73,1.22,10.34,5.15,17.37,15.21,21.83,5.13,2.27,8.92,3.23,14.21,1.39,17.33-6,20.36-4.68,29.55,11.27,4.9,8.49,9.85,16.95,14.71,25.46,5.12,9,4.5,15.93-3.63,22-7.77,5.8-10.94,12.34-10.27,22.18.42,6.31,1.34,11.13,6.72,14.7a36,36,0,0,1,5.6,5c5,5.11,6.33,11.52,2.86,17.8q-10,18.1-20.71,35.8c-3.68,6.09-10.7,9-17.38,5.85-10.4-4.83-19.14-4-28.31,2.9-3.58,2.68-6.42,4.71-6.55,9.36a25.59,25.59,0,0,1-.83,3.88C287.88,226,284.51,229,270,229.75v30.79H412.46c11.11,0,16.91,5.77,16.92,16.82,0,14.14.06,28.28,0,42.42,0,2.48.58,3.75,3.12,4.72,35.82,13.84,47.83,53.13,26,84.68-.37.53-.69,1.09-1.13,1.78,4.64,3.06,9.38,5.8,13.7,9.1,23.55,18,36.14,41.86,38.26,71.43.67,9.22-2.43,15.8-11,19.58ZM211.6,410.66c-7.57-11.23-11.21-20.46-11.74-29.75-1.46-25.86,12.3-47.06,36.52-56.48,1.29-.5,3.17-1.89,3.19-2.9.24-10.25.14-20.5.14-30.71H110v32.44c18.33,6.15,31.36,17.94,37.26,36.54s2,35.65-9.22,50.83c7,5.11,14.05,9.53,20.17,15s11.24,12.05,16.58,17.89c5.39-5.89,10.52-12.46,16.64-17.94S204.68,415.71,211.6,410.66Zm159.77,0c-.67-1-1.5-2.16-2.32-3.36a52,52,0,0,1-9.41-26.94c-1.24-25.9,12.39-46.52,36.52-55.94,1.28-.5,3.13-1.91,3.15-2.94.24-10.24.15-20.48.15-30.65H269.78v32.48c18.4,6.08,31.36,17.94,37.26,36.53s2,35.65-9.7,51.43a97.23,97.23,0,0,1,36.73,32.81c5.9-6.46,11-13,17.16-18.51S364.46,415.7,371.37,410.66Zm-109-211.22c.73-3.22,1.63-6.23,2.07-9.32,1.07-7.56,5.44-11.69,12.4-14.68a106.69,106.69,0,0,0,20.06-11.77c5.49-4,10.8-5.43,17.19-3.14,3.37,1.2,6.83,2.14,10.29,3.21l7.6-13.28c-2.74-2.44-5-4.59-7.44-6.63-5.41-4.56-7.16-10-6.26-17.23a106.23,106.23,0,0,0-.09-24.24c-.72-6.65.86-11.72,5.69-16,2.69-2.4,5.35-4.83,8.1-7.32l-7.74-13.24c-4,1.31-7.56,2.59-11.2,3.67-5.24,1.54-10,.63-14.67-2.38-7.79-5-15.76-9.69-23.95-13.93-5.14-2.67-8.43-6.25-9.63-11.85-.78-3.69-1.58-7.37-2.39-11.14H247.06c-.77,3.37-1.71,6.54-2.18,9.78-1,7.2-5.35,11.08-11.81,14.06A137.75,137.75,0,0,0,212.15,66.2c-5.23,3.65-10.33,5-16.34,3-3.57-1.16-7.14-2.27-10.75-3.41-2.69,4.69-5.13,9-7.61,13.3,2.74,2.44,5.07,4.56,7.46,6.61,5.35,4.6,7.13,10,6.23,17.27a106.8,106.8,0,0,0,.09,24.24c.68,6.43-.75,11.43-5.33,15.7-2.76,2.57-5.58,5.06-8.45,7.65l7.75,13.24c4-1.32,7.57-2.59,11.22-3.69,5.25-1.56,10-.59,14.66,2.41,7.78,5,15.76,9.68,23.95,13.92,5,2.58,8.24,6,9.51,11.37.91,3.83,1.65,7.7,2.47,11.61Zm-230,281.43H157.58c-5.49-28-33-49.66-62.66-49.65S37.45,453.24,32.33,480.87Zm159.73,0H317.31c-5.3-27.8-33-49.65-62.62-49.66S197.35,453.09,192.06,480.88Zm159.71,0H477c-4.94-27.39-32.47-49.34-62-49.68S357.47,452.63,351.77,480.91ZM119.89,376.42a25.31,25.31,0,0,0-24.58-25.05C81.78,351.12,70.08,362.6,70,376.2c-.08,13.37,11.15,24.81,24.58,25.07S119.82,390,119.89,376.42Zm134.83,24.85a25.34,25.34,0,0,0,24.91-24.75c.15-13.55-11.4-25.17-25-25.15s-25.11,11.69-24.91,25.23A25.36,25.36,0,0,0,254.72,401.27Zm159.84-49.9a25.33,25.33,0,0,0-25.08,24.56c-.27,13.5,11.24,25.25,24.82,25.34,13.37.09,24.81-11.13,25.07-24.58S428.16,351.46,414.56,351.37Z"></path><path d="M254.75,159.69a44.9,44.9,0,1,1,44.84-45.09A44.79,44.79,0,0,1,254.75,159.69Zm14.9-45.06c-.11-7.94-7.23-14.91-15.11-14.81s-14.93,7.24-14.82,15.11,7.25,14.93,15.11,14.82S269.75,122.51,269.65,114.63Z"></path></g></g></svg>