<svg xmlns="http://www.w3.org/2000/svg" viewBox="0 0 511.02 502.28"><g id="Layer_2" data-name="Layer 2"><g id="Layer_1-2" data-name="Layer 1"><path d="M0,284.21c2.54-5.27,6-9.62,12.08-10.82,9.45-1.85,17.79,5.22,17.82,15.25.07,28.5-.16,57,.08,85.49.21,25.1,10.94,44.53,32.56,57.52a61.23,61.23,0,0,0,30.84,8.56c7.32.14,14.64,0,22,.07,8.83.15,15.35,6.64,15.33,15.06s-6.39,14.9-15.4,14.87c-15.25,0-30.52.91-45.59-3.07C34.27,457.8,5.84,425.85,1,389.44a19.47,19.47,0,0,0-1-3.23Z"></path><path d="M327.16,175.48c.33,3.32.55,6.07.89,8.82,1,8-.08,15.36-6.4,21-7.91,7.09-18.55,7.12-27.21-.16-10.45-8.78-20.56-18-31.06-26.67a14.23,14.23,0,0,0-7.93-2.89c-8.13-.39-16.3.09-24.44-.25-14.65-.59-24.43-9.57-26.78-24.61-1.17.85-2.21,1.48-3.1,2.27-5.73,5.08-11.36,10.28-17.15,15.29-7.9,6.83-17.72,8-26.36,3.26-8.06-4.41-12.55-13.9-11.39-23.71.52-4.29.74-8.62,1.17-13.87-2,0-3.89,0-5.77,0-11.63-.14-23.34.5-34.88-.62-16.19-1.58-26.41-13.15-26.64-29.54q-.51-36.73,0-73.49C80.33,12.22,92.84.22,111,.2,166,.14,221.06.45,276.11,0c15.56-.13,32,10.53,31.74,31.45-.11,8.46,0,16.92,0,25.82,15.53,0,30.47,0,45.4,0a47.54,47.54,0,0,1,8.45.45C374.43,60,383.83,70.38,384,83.44c.35,22,.4,44,0,66-.27,14.35-11.11,25.07-25.38,25.8-8.46.44-16.95.2-25.43.26C331.42,175.49,329.63,175.48,327.16,175.48Zm-216.65-71.9h5.79c9.64,0,19.31-.42,28.92.16,5.66.35,11.66,1.35,16.75,3.7,10.32,4.76,14.84,14,16,25.81,7.68-6.89,15-13.12,21.93-19.76,7.27-7,15.78-10,25.73-9.94,15.46.13,30.92,0,46.38,0h5.34V30.49H110.51Zm124.08,41.73c7.56,0,14.69.31,21.79-.08,10.46-.57,19.14,2.84,26.63,10.08,4.36,4.21,9.14,8,13.91,12.11,5.09-15.51,14.17-22.09,29.91-22.11,8.92,0,17.85,0,26.87,0V87.58H307.42c0,6.82.37,13.46-.08,20-.86,12.91-11.2,24.49-24,25.45-14.22,1.08-28.55.68-42.84.92-1.92,0-3.85,0-5.95,0Z"></path><path d="M65.49,256.58c-12.16-15.63-10.38-33.29-7.88-50.3,2.47-16.79,17.72-29,35.4-30.43,20.61-1.63,36.24,5.21,44.35,21.56a35.8,35.8,0,0,1,3.74,13.3c.79,12.73,2.31,25.67-3.57,37.79-1.29,2.67-3,5.13-4.42,7.47,3.55,5.22,7.4,10.19,10.49,15.59,4.23,7.39,5.36,15.62,5.3,24.08-.08,14.32,0,28.65,0,43v6.07c2.49,0,4.42,0,6.36,0,13.29.17,26.6,0,39.87.63,16.69.8,32.76,16.16,33.27,32.93.87,28.45.7,56.94.75,85.41a40.3,40.3,0,0,1-2,11.74,38,38,0,0,1-74.38-9.63c-.46-12.64-.2-25.32-.25-38,0-1.82,0-3.63,0-6.28-2.28,0-4.2,0-6.12,0-17-.08-33.93.3-50.87-.34-24.72-.95-46-22.62-46.39-47.51-.47-27.31-.36-54.64,0-82C49.33,278,55.33,266.39,65.49,256.58Zm13.58,75.79c0,12.33-.11,24.67,0,37,.15,14.1,8.1,21.94,22.05,21.95,21.29,0,42.57,0,63.86,0,11.58,0,17.54,6,17.56,17.51,0,17.33,0,34.66,0,52a17.39,17.39,0,0,0,.68,5.88,7.61,7.61,0,0,0,8.6,5.28c4.55-.57,7-3.8,7-9.4q.09-38.49,0-77c0-8.11-2.58-10.55-10.89-10.56-17.13,0-34.26,0-51.39,0-11.88,0-17.75-5.93-17.76-17.82,0-21,0-42,0-63,0-9.08-5.17-16.3-13.29-19.13C92,270.4,79.39,280,79.12,295.38,78.89,307.71,79.07,320,79.07,332.37Zm7.59-109.74h0c0,2.82-.08,5.65,0,8.47.19,5.13,2.67,8,7.59,9,7.81,1.51,14.45-.53,16.34-5.05a3.94,3.94,0,0,0,.34-1.45c0-7.1.55-14.27-.34-21.25-.3-2.3-4.2-5.7-6.66-5.89-11.66-.91-18.39-2.08-17.31,14.73C86.69,221.63,86.66,222.13,86.66,222.63Z"></path><path d="M358.3,421.53c0,15.41.38,29.91-.1,44.37a37.74,37.74,0,0,1-36.69,36.28c-20.37.48-37.62-14.09-39-34.19-1.05-15.75-.77-31.61-.77-47.42,0-14.15,0-28.32.79-42.43,1-16.7,16.68-32,33.44-32.81,13.77-.65,27.58-.58,41.37-.56,3.67,0,4.89-1,4.82-4.78-.22-12.66.34-25.34-.18-38-.72-17.45,3.09-33,16.47-45.37-12.15-15.67-10.67-33.61-7.71-51,3.45-20.26,23.15-31.75,45.85-30,20.8,1.59,34.58,15.12,36.8,30.75,2.41,17,4.23,34.68-7.74,50,2.24,2.65,4.52,5,6.45,7.69A50.83,50.83,0,0,1,462,294.84c0,25.16.06,50.31,0,75.47-.09,28.17-20.61,49.95-48.65,51-16.11.61-32.25.17-48.38.21Zm-46.18,1.57c0,13.17-.06,26.33,0,39.49,0,5.89,3.17,9.48,8,9.57s8.19-3.83,8.32-9.83c0-1.17,0-2.34,0-3.5q0-24.75,0-49.49c0-12.21,5.81-18,18.06-18q31.42,0,62.86,0c14.62,0,22.51-7.78,22.56-22.46q.13-36.24,0-72.48a30.13,30.13,0,0,0-1.38-9.31c-3-9.22-12.39-14.48-22.15-12.85-9,1.52-16.07,9.79-16.13,19.5-.12,21,0,42,0,63,0,12.58-5.71,18.32-18.25,18.34-17,0-33.93,0-50.89,0-8.47,0-10.88,2.46-10.9,11.06C312.08,398.44,312.11,410.77,312.12,423.1Zm112.22-200c0-2.33,0-4.65,0-7-.11-7.1-2.91-10-9.86-10.12q-2.49-.06-5,0c-6.44.14-9.6,2.84-9.95,9.16a151.16,151.16,0,0,0,0,15.93c.19,3.83,1.75,6.95,5.82,8.39,11.59,4.1,19-.87,19-12.9Z"></path><path d="M511,335.19c0,14,.12,28,0,42-.5,46.34-35,85.91-80.92,91.92-11.95,1.57-24.19,1.1-36.29,1-7.5-.06-13.39-7.06-13.41-14.72a14.94,14.94,0,0,1,14.31-15c6.64-.25,13.29-.07,19.94-.08,38.24-.07,66.35-28.12,66.48-66.49.1-28.47,0-56.95.05-85.42,0-7.8,5.42-14,12.62-15a15,15,0,0,1,16.75,11,21.45,21.45,0,0,1,.48,5.44C511,304.88,511,320,511,335.19Z"></path></g></g></svg>