<svg xmlns="http://www.w3.org/2000/svg" viewBox="0 0 511.05 511"><g id="Layer_2" data-name="Layer 2"><g id="Layer_1-2" data-name="Layer 1"><path d="M0,159.69c2.59-10.86,6.85-20.78,15.78-28.05C30.1,120,46.1,117.31,62.86,124.69,80,132.24,89.31,146.2,89.68,165c.47,23.93.12,47.88.13,71.82v4.41c7.76,0,15.17-.56,22.47.13,10,1,18.12,6.08,25.12,13.08q40,40,80,80.09c15,15.1,22.22,33.42,22.13,54.77-.16,34.75,0,69.5-.05,104.25,0,11.77-5.61,17.4-17.34,17.4H136.88q-17.1,0-17.09-17.16c0-10.47-.15-20.95.07-31.42a10.29,10.29,0,0,0-3.36-8.26c-30.41-30.25-60.62-60.71-91.09-90.89-13-12.89-22.2-27.6-24.63-46.05A7.19,7.19,0,0,0,0,315.38ZM209.61,480.88V475c0-27.44-.18-54.88.07-82.32.14-15.85-5.17-28.92-16.58-40.1-25.19-24.67-49.94-49.79-74.89-74.71a42.83,42.83,0,0,0-4.78-4.36,14.7,14.7,0,0,0-22.69,7.36c-2.29,7,.55,12.18,5.34,17q34.28,34.17,68.45,68.44a41.8,41.8,0,0,1,4.34,4.8,14.81,14.81,0,0,1-1.78,19.51c-6.29,6.08-15.12,5.61-22.16-1.41q-35.34-35.22-70.58-70.54c-9.79-9.78-14.56-21.45-14.5-35.36.15-37.92.07-75.84,0-113.76a31.53,31.53,0,0,0-.86-7.88c-1.6-6.07-5.92-9.54-11.95-10.57-5.73-1-10.9,1-13.81,5.91a24.14,24.14,0,0,0-3.19,11.68c-.22,44.4,0,88.81-.2,133.22C29.8,317.47,35,330.41,46.23,341.5c32.44,32,64.48,64.41,96.79,96.54,4.68,4.65,7,9.7,6.76,16.38-.37,8.74-.09,17.51-.09,26.46Z"></path><path d="M268.48,0c6.15,1.23,12.37,2.17,18.43,3.74,48.64,12.61,82,42.65,97.08,90.39,14.94,47.27,5.58,90.94-26.69,129-19.82,23.35-45.16,38.23-75.18,43.72-47.46,8.68-88.93-4.06-123-38.45-25.22-25.49-37.9-56.92-37.94-92.57C121.14,92,138.64,55.91,173,28.49,192.58,12.93,215,3.93,239.81,1a13.07,13.07,0,0,0,2.72-1ZM247.41,238.55c-6.11-4.91-7.35-10.69-6.89-17.11.17-2.32-.2-4.68.08-7,.45-3.66-.86-5.59-4.38-7.09-8.51-3.63-14.88-9.92-19.56-17.84a15,15,0,0,1,24.21-17.34c1.31,1.5,2.32,3.26,3.65,4.74a14.91,14.91,0,0,0,25.91-9.64,14.63,14.63,0,0,0-9.49-13.93,35.53,35.53,0,0,0-8.78-1.61c-19.39-1.58-34.19-13.73-39.9-32.92-5.08-17,1.46-36.46,16.16-47.49,3.86-2.89,9.8-4.49,11.63-8.23,2-4.16.42-10.09.52-15.24C240.74,39.3,247,33,255.35,33c8.58-.06,14.94,6.26,15.08,15.12.09,5.48,0,11,0,16.61,10,4,18,10.19,23.57,19.31a15,15,0,0,1-24.43,17.33c-1.15-1.41-2.12-3-3.36-4.32a15.19,15.19,0,0,0-17.43-3.08c-5.64,2.87-9.07,9.41-8,15.31a14.87,14.87,0,0,0,13,12.59c2.47.29,4.94.61,7.42.87,19,2,35.2,17.29,38.43,36.36,3.43,20.24-6.5,40.1-24.59,48.26-3.69,1.66-4.71,3.57-4.67,7.4.08,8.29,2,17.19-6.56,23.67,42.43-.94,92.55-37.22,96.28-96C364,80.84,318.24,31.12,257,30.13c-58.71-.94-105.62,46.29-105.75,104.4C151.15,194,199.24,236.15,247.41,238.55Z"></path><path d="M421.2,242.62V200.28c0-11.31-.07-22.62,0-33.93.17-21.81,14.46-39.91,35.06-44.51a44.35,44.35,0,0,1,50.52,25.41,47.49,47.49,0,0,1,4,18.77q.48,71.1.1,142.19c-.09,20.82-8.57,38.24-23.19,52.85q-46.6,46.53-93.2,93.07a10.31,10.31,0,0,0-3.37,8.26c.21,11,.13,21.95.06,32.93C391.14,504.77,385,511,375.61,511q-44.14.07-88.31,0c-9.72,0-15.79-6.15-15.8-15.94,0-36.09-.11-72.18,0-108.27.08-19.07,6.46-36,19.79-49.65q41.37-42.24,83.53-83.69c12.18-12,27.07-15.51,43.7-11.12A23.7,23.7,0,0,0,421.2,242.62ZM361.31,480.86c0-9.06.3-17.7-.09-26.3-.31-6.89,2.21-12,7-16.78,31.5-31.29,62.57-63,94.39-94,12.93-12.59,18.8-26.87,18.61-44.8-.46-43.24-.13-86.48-.19-129.73a28.39,28.39,0,0,0-1-8.34c-3.08-9.74-15.23-13.19-23.16-6.77-4.53,3.67-5.79,8.62-5.78,14.2,0,38.26-.09,76.51.08,114.76a48,48,0,0,1-14.75,35.76q-35,34.88-69.88,69.84a31.13,31.13,0,0,1-2.93,2.7c-4.93,3.82-10.36,4.48-15.89,1.74s-8.34-7.33-8.38-13.63c0-5.3,2.83-9,6.32-12.48q34.07-34,68.09-68.1a44.86,44.86,0,0,0,4.38-4.77,14.39,14.39,0,0,0-1.38-19.09c-6.37-6.48-15.06-6.07-22.44,1.28-26,26-52,52-78,77.92-10.11,10.05-14.88,22.12-14.88,36.25q0,42.92,0,85.82c0,1.45.14,2.9.22,4.53Z"></path></g></g></svg>