<svg xmlns="http://www.w3.org/2000/svg" width="512" height="512" viewBox="0 0 512 512" fill="none"><path d="M104 152V134.84C113.24 131.912 120 123.36 120 113.168C120 104.464 115.168 96.64 107.376 92.744L91.784 84.944C89.448 83.784 88 81.44 88 78.832C88 75.064 91.072 72 94.832 72H97.16C100.928 72 104 75.064 104 78.832V80H120V78.832C120 68.64 113.24 60.088 104 57.16V40H88V57.16C78.76 60.088 72 68.64 72 78.832C72 87.536 76.832 95.36 84.624 99.256L100.216 107.056C102.552 108.216 104 110.56 104 113.168C104 116.936 100.928 120 97.168 120H94.84C91.072 120 88 116.936 88 113.168V104H72V113.168C72 123.36 78.76 131.912 88 134.84V152H104Z" fill="black"></path><path d="M447.68 141.76L446 136H425.688C389.528 136 354.52 125.4 324.44 105.344L320 102.384L315.56 105.344C285.488 125.4 250.472 136 214.312 136H194L192.32 141.76C192.176 142.248 178.72 188.44 165.144 240.584C163.48 240.224 161.768 240 160 240C155.704 240 151.728 241.224 148.232 243.208C143.976 236.496 136.52 232 128 232C125.184 232 122.512 232.576 120 233.472V180.584C156.88 170.104 184 136.192 184 95.9919C184 47.4719 144.52 7.99194 96 7.99194C47.48 7.99194 8 47.4799 8 95.9999C8 136.192 35.12 170.104 72 180.592V272H40C22.352 272 8 286.352 8 304V400C8 412.04 11.976 423.976 19.2 433.6L26.936 443.912C20.368 448.2 16 455.584 16 464V504H208V464C208 461.752 207.592 459.616 207.008 457.544C236.016 474.552 267.248 488.92 285.32 496.8C296.288 501.576 307.96 504 320 504C332.04 504 343.712 501.576 354.68 496.8C410.448 472.504 504 425.536 504 384C504 335.416 449.976 149.648 447.68 141.76ZM184 280C184 275.592 187.584 272 192 272C196.416 272 200 275.592 200 280V304V328C200 332.408 196.416 336 192 336C187.584 336 184 332.408 184 328V312V280ZM216 400V328V304V280C216 273.36 213.288 267.352 208.92 263C215.36 237.864 222.824 210.072 230.312 183.448C261.824 181.288 291.96 172.864 320 158.36C348.04 172.864 378.168 181.288 409.688 183.448C431.888 262.352 454.12 351.464 455.88 380.688C449.32 390.6 414.152 418.52 335.504 452.784C325.72 457.04 314.272 457.04 304.488 452.784C260.488 433.616 232.296 417.368 215.472 406.36C215.728 404.248 216 402.136 216 400ZM160 256C164.416 256 168 259.592 168 264V280V312C168 316.408 164.416 320 160 320C155.584 320 152 316.408 152 312V304V264C152 259.592 155.584 256 160 256ZM128 248C132.416 248 136 251.592 136 256V264V304C136 308.408 132.416 312 128 312C125.56 312 123.368 310.832 121.88 309.032C125.696 302.904 128 295.736 128 288C128 282.104 124.76 277 120 274.224V256C120 251.592 123.584 248 128 248ZM24 95.9999C24 56.3039 56.296 23.9999 96 23.9999C135.704 23.9999 168 56.3039 168 95.9999C168 135.696 135.704 168 96 168C56.296 168 24 135.696 24 95.9999ZM88 183.592C90.64 183.832 93.296 184 96 184C98.704 184 101.36 183.832 104 183.592V256V272H88V183.592ZM24 304C24 295.176 31.176 288 40 288H112C112 301.232 101.232 312 88 312H48V331.312L60.28 343.6C67.832 351.152 72 361.192 72 371.88V392H88V371.88C88 356.912 82.168 342.856 71.592 332.28L67.312 328H88C96.504 328 104.36 325.288 110.848 320.744C115.272 325.256 121.416 328 128 328C132.296 328 136.272 326.776 139.768 324.792C144.024 331.504 151.48 336 160 336C163.16 336 166.16 335.352 168.928 334.24C171.688 344.44 180.936 352 192 352C194.816 352 197.488 351.424 200 350.528V400C200 408.6 197.16 417.128 192 424L180 440H44L32 424C26.84 417.128 24 408.6 24 400V304ZM192 488H32V464C32 459.592 35.584 456 40 456H184C188.416 456 192 459.592 192 464V488ZM348.288 482.128C330.416 489.92 309.584 489.912 291.712 482.128C271.368 473.264 234.056 456.024 202.808 436.256L204.8 433.6C207.36 430.192 209.344 426.432 211.056 422.552C228.808 433.808 256.704 449.424 298.104 467.464C305.024 470.472 312.392 472 320 472C327.608 472 334.976 470.472 341.896 467.464C421.48 432.784 464.216 401.488 471.264 385.864L472.024 384.192L471.976 382.36C471.128 351.592 445.344 250.68 423.528 173.616L421.96 168.056L416.184 167.8C383.56 166.368 352.472 157.784 323.8 142.28L320 140.216L316.192 142.272C287.52 157.776 256.432 166.36 223.808 167.792L218.032 168.048L216.464 173.608C208.704 201.016 200.904 229.944 194.152 256.224C193.432 256.152 192.736 256 192 256C188.84 256 185.84 256.648 183.072 257.76C182.288 254.864 181.008 252.192 179.272 249.84C190.448 206.616 201.84 166.536 206.008 152H214.304C251.864 152 288.288 141.488 319.992 121.528C351.704 141.488 388.128 152 425.688 152H433.984C443.248 184.272 488 342.264 488 384C488 406.632 433.16 445.152 348.288 482.128Z" fill="black"></path><path d="M344 392V328H408V280H344V216H296V280H232V328H296V392H344ZM248 312V296H312V232H328V296H392V312H328V376H312V312H248Z" fill="black"></path></svg>