<svg xmlns="http://www.w3.org/2000/svg" viewBox="0 0 511.17 511.04"><g id="Layer_2" data-name="Layer 2"><g id="Layer_1-2" data-name="Layer 1"><path d="M511.17,211.61c-4,8.32-10.54,11.19-19.68,11-23.93-.4-47.87-.23-71.81-.11-28,.13-51.78-9.7-71.55-29.59-31.64-31.84-63.48-63.47-95.14-95.29a11.12,11.12,0,0,0-8.7-3.63c-19.44.09-38.91.45-58.34-.29-34.5-1.31-65.57-28.63-72-62.57-.77-4.06-1.16-8.21-1.68-12.32C111.11,10,115.3,4,122.82,0H388.38c3.75,3.14,7.77,6,11.22,9.45q50.64,50.41,101.07,101c3.79,3.81,7,8.18,10.5,12.29ZM144.71,29.93c.88,2.25,1.42,4.15,2.31,5.87,9.28,17.92,23.87,28,44.2,28.09,52.57.26,105.15.12,157.72.06,5.19,0,9.92.93,13.72,4.71q24,24,48,48a14.1,14.1,0,0,1,4.16,12.77c-1,5.89-4.32,10.11-10,12-6.07,2-11.5.43-16-4.06-13.31-13.27-26.65-26.52-39.83-39.91a10.48,10.48,0,0,0-8.31-3.39c-14.14.16-28.28.06-42.42.08-1.59,0-3.17.13-5.28.23a14.27,14.27,0,0,0,1.37,2c26.48,26.45,52.83,53,79.55,79.25,9.88,9.69,22.27,15.51,36.15,16,21.93.8,43.9.57,65.85.76,1.62,0,3.24-.14,5.17-.23.08-1.89.22-3.51.22-5.13,0-16.3-.09-32.6.09-48.9a10.44,10.44,0,0,0-3.54-8.21Q429.5,81.91,381.44,33.64a11.63,11.63,0,0,0-9.1-3.79q-110.8.15-221.6.08Z"></path><path d="M162.44,317.23c5.31-20.26,16.58-36,33.42-47.66-29.36-30.3-22.69-72.09,2.36-93.89,24.48-21.31,62.19-20.23,85.65,2.8,23.22,22.8,27,62.53-.69,90.93,1.41,1.1,2.78,2.14,4.14,3.21,19.62,15.53,30.74,35.6,31.18,60.79.45,25.6.15,51.22.18,76.83,0,2,0,3.94,0,5.95,6.91,1,13.52,1.58,19.91,3.09,34.58,8.16,59.7,39.5,60.45,75.07.21,10-6.21,16.67-16.25,16.68q-127.24,0-254.5-.2a18.7,18.7,0,0,1-12-4.75C79.06,469.28,42.09,432.15,5,395.11a16.74,16.74,0,0,1-5-12.53c.11-25.95,0-51.89.06-77.84,0-9.94,6.19-16.16,16.16-16.18,25.78-.05,51.57-.1,77.35,0q38.06.17,66,26.12C160.39,315.46,161.26,316.19,162.44,317.23Zm56,99.71a16,16,0,0,0-1.43-2.26c-26.6-26.57-53-53.3-79.92-79.58a53.65,53.65,0,0,0-36.27-15.79c-22.93-.71-45.9-.5-68.85-.65a7.42,7.42,0,0,0-2,.65c0,17.91.09,35.7-.08,53.49a10.5,10.5,0,0,0,3.5,8.23q48.28,48,96.35,96.33a11.64,11.64,0,0,0,9.08,3.85q111.06-.16,222.11-.08h5.21a16,16,0,0,0-.48-2.16,34.49,34.49,0,0,0-1.68-4.14c-9.31-17.68-23.84-27.58-44-27.67-52.74-.25-105.49-.11-158.23-.05-5,0-9.58-1.09-13.21-4.71q-24-24-48-48a14.14,14.14,0,0,1-4.2-12.76c1-5.89,4.33-10.1,10-12,6.06-2,11.5-.47,16,4,13.44,13.38,26.76,26.88,40.35,40.11a11.72,11.72,0,0,0,7.29,3c14.47.28,28.95.14,43.42.14Zm70.11,0c0-29.07,1-57.36-.27-85.55-1.22-27.73-27.68-48-55.12-44.15s-45.64,27.94-42.47,56.58a7.72,7.72,0,0,0,2.26,4.13q33.24,33.39,66.64,66.64c1,1,2.4,2.22,3.64,2.25C271.47,417,279.75,416.9,288.52,416.9ZM239.57,190.53a32.76,32.76,0,0,0-33,32.78,33,33,0,1,0,33-32.78Z"></path></g></g></svg>