<svg xmlns="http://www.w3.org/2000/svg" width="512" height="512" viewBox="0 0 512 512" fill="none"><path d="M448 456.808V272C448 249.208 442.176 227.064 431.504 207.344C433.247 207.696 435.016 208 436.799 208C451.799 208 464 195.8 464 180.8V178.768C464 169.352 459.008 160.456 450.984 155.56L335.376 84.912C321.552 76.464 305.688 72 289.496 72H210.311C197.511 72 185.391 67.68 175.559 59.76L187.311 48L143.999 4.68799L28.6875 120L71.9995 163.312L87.9995 147.312L111.743 171.056C119.551 178.872 129.223 184.84 139.695 188.336C144.519 189.944 149.487 190.976 154.511 191.528C137.383 214.76 127.999 242.736 127.999 272V456.808C109.767 460.528 95.9995 476.68 95.9995 496V504H480V496C480 476.688 466.232 460.528 448 456.808ZM432 456H400V441.712C400 428.408 395.84 415.712 387.967 404.992C378.336 391.872 364.191 383.168 348.135 380.496L326.576 376.904L322.816 365.624C336.032 357.016 345.84 343.664 349.888 328H352.504C370.152 328 384.504 313.648 384.504 296C384.504 288.432 381.751 281.56 377.336 276.072L383.104 254.576C384.032 250.864 384.504 247.04 384.504 243.216C384.504 223.584 372.112 205.888 353.664 199.184L301.032 180.048C298.656 179.184 296.232 178.504 293.792 177.92C295.184 174.88 296 171.544 296 168C296 158.96 292.871 150.704 287.792 144H296C305.16 144 314.272 146.28 322.352 150.592L402.592 193.384C421.536 215.2 432 243.048 432 272V456ZM223.999 280.048V311.944C215.415 311.664 208.511 304.648 208.511 295.992C208.511 287.336 215.415 280.328 223.999 280.048ZM231.016 264H224.511C220.487 264 216.68 264.832 213.128 266.192C211.008 258.832 208.511 248.392 208.511 240C208.511 231.176 215.687 224 224.511 224H228.511L237.167 212.464C246.768 199.648 262.072 192 278.088 192C284.064 192 289.944 193.032 295.568 195.08L348.2 214.216C360.352 218.632 368.512 230.288 368.512 243.216C368.512 245.736 368.199 248.256 367.624 250.568L363.464 266.056C360.031 264.792 356.376 264 352.512 264H344.984L341.92 263.232C324.248 258.816 307.6 251.448 292.432 241.344L288 238.384L283.559 241.344C268.391 251.456 251.743 258.824 234.072 263.232L231.016 264ZM352 280H352.512C361.336 280 368.512 287.176 368.512 296C368.512 304.824 361.336 312 352.512 312H352V280ZM239.999 278.232C256.992 273.768 273.104 266.808 288 257.52C302.896 266.816 319.008 273.768 336 278.232V312C336 338.472 314.471 360 288 360C261.528 360 239.999 338.472 239.999 312V278.232ZM323.04 392.528L324.608 392.792L315.176 426.592L300.184 415.376L323.04 392.528ZM288 376C295.096 376 301.904 374.792 308.296 372.648L311.296 381.648L287.872 405.072L264.64 381.84L267.704 372.648C274.096 374.792 280.904 376 288 376ZM252.743 392.568L275.559 415.384L260.559 426.6L251.135 392.84L252.743 392.568ZM235.264 395.48L251.439 453.408L287.88 426.152L324.32 453.408L340.488 395.44L345.512 396.28C357.432 398.264 367.927 404.72 375.072 414.456C380.832 422.296 384 431.976 384 441.712V456H191.999V441.712C191.999 431.984 195.167 422.304 200.927 414.456C208.079 404.72 218.576 398.264 230.488 396.28L235.264 395.48ZM51.3115 120L143.999 27.312L164.688 48L71.9995 140.688L51.3115 120ZM123.055 159.744L99.3115 136L164.207 71.104C177.087 82.016 193.223 88 210.303 88H289.488C302.736 88 315.72 91.656 327.032 98.568L442.64 169.216C445.952 171.232 448 174.896 448 178.768V180.8C448 186.976 442.975 192 436.799 192C434.967 192 433.144 191.544 431.528 190.68L329.88 136.472C319.496 130.928 307.776 128 296 128H255.999H231.999H215.999V144H231.999H255.999C269.231 144 279.999 154.768 279.999 168C279.999 172.408 276.408 176 271.999 176H162.303C156.327 176 150.423 175.04 144.751 173.152C136.623 170.44 129.119 165.808 123.055 159.744ZM174.703 192H234.656C230.863 195.208 227.383 198.832 224.352 202.864L220.296 208.272C204.632 210.336 192.503 223.776 192.503 240C192.503 252.872 197.031 268.696 199.471 276.312C195.175 281.76 192.503 288.544 192.503 296C192.503 313.648 206.855 328 224.503 328H226.095C230.151 343.664 239.951 357.016 253.167 365.624L249.408 376.904L227.848 380.496C211.792 383.168 197.648 391.864 188.016 404.992C180.16 415.712 175.999 428.408 175.999 441.712V456H143.999V272C143.999 242.28 154.935 214.04 174.703 192ZM113.367 488C116.671 478.688 125.567 472 135.999 472H440C450.432 472 459.328 478.688 462.632 488H113.367Z" fill="black"></path><path d="M257.352 323.576L258.192 325.256C263.976 336.824 275.584 344 288.512 344C301.432 344 313.048 336.824 318.816 325.28L319.664 323.592L305.368 316.416L304.512 318.12C301.464 324.216 295.336 328.008 288.512 328.008C281.688 328.008 275.56 324.216 272.512 318.12L271.672 316.432L257.352 323.576Z" fill="black"></path><path d="M312 304C316.418 304 320 300.418 320 296C320 291.582 316.418 288 312 288C307.582 288 304 291.582 304 296C304 300.418 307.582 304 312 304Z" fill="black"></path><path d="M264 304C268.418 304 272 300.418 272 296C272 291.582 268.418 288 264 288C259.582 288 256 291.582 256 296C256 300.418 259.582 304 264 304Z" fill="black"></path></svg>