<svg xmlns="http://www.w3.org/2000/svg" width="512" height="512" viewBox="0 0 512 512" fill="none"><path d="M472 216V200H456V139.8C475.848 126.488 488 103.992 488 80C488 40.304 455.704 8 416 8C376.296 8 344 40.304 344 80C344 103.992 356.152 126.496 376 139.8V200H296V132.736C315.856 120.872 328 99.648 328 76.224V28.688L307.312 8H264V64C264 68.408 260.416 72 256 72C251.584 72 248 68.408 248 64V8H204.688L184 28.688V76.224C184 99.648 196.144 120.872 216 132.736V200V208V216H200V200C200 158.392 173.352 122.992 136.256 109.696C150.592 99.544 160 82.864 160 64C160 33.12 134.872 8 104 8C73.128 8 48 33.12 48 64C48 82.864 57.408 99.544 71.744 109.696C34.648 122.992 8 158.392 8 200V272C8 294.056 25.944 312 48 312V472C48 489.648 62.352 504 80 504C89.608 504 98.128 499.664 104 492.944C109.872 499.664 118.392 504 128 504C145.648 504 160 489.648 160 472V312C169.04 312 177.296 308.872 184 303.792V488H308.408C317.544 498.216 330.296 504 344 504C357.704 504 370.464 498.216 379.592 488H504V216H472ZM232 440V216H336V440H232ZM352 216H456V440H352V216ZM388.008 128.448C370.736 118.44 360 99.872 360 80C360 49.12 385.128 24 416 24C446.872 24 472 49.12 472 80C472 99.872 461.264 118.44 443.992 128.448L440 130.76V200H392V130.76L388.008 128.448ZM227.576 120.84C210.568 112.336 200 95.24 200 76.224V35.312L211.312 24H232V64C232 77.232 242.768 88 256 88C269.232 88 280 77.232 280 64V24H300.688L312 35.312V76.224C312 95.24 301.432 112.344 284.424 120.848L280 123.056V200H232V123.056L227.576 120.84ZM111.8 181.88L104 193.576L96.2 181.88L101.344 120.128C102.232 120.104 103.104 120 104 120C104.896 120 105.768 120.104 106.656 120.136L111.8 181.88ZM64 64C64 41.944 81.944 24 104 24C126.056 24 144 41.944 144 64C144 86.056 126.056 104 104 104C81.944 104 64 86.056 64 64ZM160 296V168H144V472C144 480.824 136.824 488 128 488C119.176 488 112 480.824 112 472V264H96V472C96 480.824 88.824 488 80 488C71.176 488 64 480.824 64 472V168H48V296C34.768 296 24 285.232 24 272V200C24 162.408 50.104 130.872 85.112 122.344L79.8 186.112L104 222.424L128.2 186.12L122.888 122.352C157.896 130.872 184 162.408 184 200V216V272C184 285.232 173.232 296 160 296ZM488 472H371.832L369.432 475.176C363.28 483.328 354.008 488 344 488C333.992 488 324.72 483.328 318.56 475.176L316.168 472H200V272V232H216V456H472V232H488V472Z" fill="black"></path><path d="M248 232V296H320V232H248ZM304 280H264V248H304V280Z" fill="black"></path><path d="M404 352C384.152 352 368 368.152 368 388C368 407.848 384.152 424 404 424C423.848 424 440 407.848 440 388C440 368.152 423.848 352 404 352ZM404 408C392.968 408 384 399.024 384 388C384 376.976 392.968 368 404 368C415.032 368 424 376.976 424 388C424 399.024 415.032 408 404 408Z" fill="black"></path><path d="M248 312H320V328H248V312Z" fill="black"></path><path d="M248 344H320V360H248V344Z" fill="black"></path><path d="M304 376H320V392H304V376Z" fill="black"></path><path d="M248 376H288V392H248V376Z" fill="black"></path><path d="M248 408H320V424H248V408Z" fill="black"></path><path d="M368 232H440V248H368V232Z" fill="black"></path><path d="M368 264H440V280H368V264Z" fill="black"></path><path d="M368 296H440V312H368V296Z" fill="black"></path><path d="M248 168H264V184H248V168Z" fill="black"></path><path d="M248 136H264V152H248V136Z" fill="black"></path><path d="M456 80C456 57.944 438.056 40 416 40C393.944 40 376 57.944 376 80C376 102.056 393.944 120 416 120C438.056 120 456 102.056 456 80ZM392 80C392 66.768 402.768 56 416 56C429.232 56 440 66.768 440 80C440 93.232 429.232 104 416 104C402.768 104 392 93.232 392 80Z" fill="black"></path><path d="M408 168H424V184H408V168Z" fill="black"></path><path d="M408 136H424V152H408V136Z" fill="black"></path></svg>