<svg xmlns="http://www.w3.org/2000/svg" viewBox="0 0 451.39 511.12"><g id="Layer_2" data-name="Layer 2"><g id="Layer_1-2" data-name="Layer 1"><path d="M11.12,511.12C2.86,507.41-.35,501.12,0,492.05c.52-12.29.15-24.62.12-36.93,0-18.82,8.87-31.8,25.79-39.56.6-.27,1.22-.51,1.81-.8.11-.06.13-.29.2-.48s.07-.35,0-.41c-14.32-12-18.42-27.71-17.33-45.6.48-7.79.07-15.63.15-23.45.12-11.07,4-20.74,11.4-29.43-9.58-11.3-13.49-24.3-10.78-38.86a43.55,43.55,0,0,1,16.25-26.67,44.9,44.9,0,0,1,59.21,3c15.19,14.67,20.08,40.81,2.06,62.69,10.76,11.32,12,25.54,11.58,40.31-.23,7.64.15,15.31-.15,22.95-.57,14.56-4.43,22.15-17.68,35.57C99.19,421,109,433,111.09,451c1.44.07,2.89.2,4.35.2,21.13,0,42.25-.06,63.38.09,3.29,0,4.82-.92,6.22-4a42.66,42.66,0,0,1,22.14-22c2.32-1,3.66-2,3.65-5q-.18-68.62-.1-137.23c0-.65-.11-1.29-.23-2.61-7.79,0-15.54,0-23.29,0-10.9,0-17.12-6-17.09-16.87,0-15.13-.57-30.33.7-45.37,1.61-18.91,15.52-32.5,34.2-35.61,1.12-.19,2.21-.56,4-1-2-1.11-3.31-1.91-4.69-2.66-9.05-5-15.92-12.09-19.66-21.73-1.49-3.83-3.57-4.68-7.35-4.61-13.14.22-26.29.12-39.43.07-10.87,0-17-6.14-16.91-17,.17-14.62-.33-29.32,1.05-43.84,4.16-43.58,39.75-81.68,82.82-89.69,59.52-11.08,114.4,26.46,124,86.15,2.68,16.74,1.51,34.16,1.33,51.26-.09,7.69-7.29,13.09-15.58,13.14-13.8.1-27.61.14-41.42-.05-3.31,0-4.89.86-6.17,4.08-4.06,10.28-11.33,17.84-21.16,22.93-1,.52-2,1.08-3.71,2.05,3.22.67,5.65,1.06,8,1.68,18.47,4.85,30.56,20,31.08,39.72.36,13.8.21,27.61,0,41.41-.13,9.92-6.52,16-16.47,16-7.49,0-15,0-22.46.06a11.47,11.47,0,0,0-1.69.35V286c0,44.25,0,88.49-.08,132.74,0,3.65.94,5.41,4.43,7a41.79,41.79,0,0,1,21.33,21.44c1.37,3,2.74,4.2,6.14,4.16,15.78-.21,31.56-.1,48-.1,0-7.53,0-14.78,0-22,.14-20,13.23-36.35,32.64-40.34,5.09-1.05,10.42-.9,16.42-1.36-3.61-2.12-6.71-3.61-9.45-5.61-11-8.07-18.11-18.78-18.67-32.58-.64-15.77-.35-31.59-.22-47.38.07-9.27,3.74-17.42,9-24.93-10.94-3.58-15.62-10.84-12.82-19.63,2.14-6.74,7.57-10.66,15.06-10.69,15.31,0,30.61-.09,45.91,0,5.81,0,10.13-2,13.5-6.88,5.34-7.66,14.35-9.4,21.34-4.49a14.7,14.7,0,0,1,3.11,21.55c-4.93,6.27-11.23,11.45-16.41,16.61,2.9,6.38,6.44,13.59,9.43,21,1.08,2.68,1.15,5.87,1.17,8.83.1,14.47.41,29-.06,43.41-.6,18.07-9.8,30.91-25.69,39.15l-2.61,1.35c6.58.73,12.57.79,18.24,2.14a40.13,40.13,0,0,1,30.78,39.25c.07,20.95-.29,41.92.16,62.87.2,9.17-2.54,15.8-11.1,19.57H331.49c-14.48-5.73-10.25-18.83-11.19-30-16.92,0-33.32-.06-49.72.14-1.26,0-3,1.67-3.64,3-3.66,7.87-8.74,14.69-16.19,19-5.63,3.27-12,5.24-18.06,7.79h-14a4.89,4.89,0,0,0-1.28-.74c-15.59-3.2-26.41-12.27-33.26-26.52-.65-1.37-3.19-2.57-4.86-2.59-21.4-.17-42.81-.12-64.21-.1-1.27,0-2.54.18-4.08.3-.64,11.19,3.19,23.92-11.08,29.65ZM180.89,122.48c0-6.23-.16-12,0-17.81.73-22.89,20.47-42.3,43.23-42.64,26.43-.39,46.29,19.29,46.41,46,0,4.76,0,9.51,0,14.32h29.34c3.22-33.06-5-62.09-35.39-81.18A73.39,73.39,0,0,0,181.2,45c-26.71,20.27-32.94,48.49-29.42,77.5ZM421.29,481c0-17.7.17-34.94-.08-52.17-.09-6.54-4.73-10.61-11.38-10.65-15.6-.1-31.21-.07-46.82,0q-12.51,0-12.56,12.55c-.06,11.95,0,23.91,0,35.86V481ZM81,481c0-9.5.19-18.47-.06-27.42-.18-6.14-4.4-10.39-10.43-10.53-10-.22-20-.2-29.92,0-5.47.11-9.88,3.69-10.16,9.09-.5,9.55-.14,19.14-.14,28.86Zm169.75-230.7c0-10,.27-19.79-.11-29.53-.18-4.53-4.31-8.11-9.19-8.24-10.45-.27-20.92-.21-31.37,0-4.67.08-8.65,3-9,7.24-.71,10.14-.23,20.36-.23,30.57Zm120.55,74.24c0,7-.12,14,0,20.94a14.58,14.58,0,0,0,29.15-.18q.19-20.44,0-40.88A14.67,14.67,0,0,0,386,289.62c-8.09-.13-14.61,6.42-14.75,15C371.17,311.26,371.26,317.91,371.27,324.55ZM240.54,123.38c0-5.16.1-10.31,0-15.46-.22-9.27-6.69-16.09-15-16s-14.5,6.79-14.64,15.8q-.22,15.45,0,30.91c.14,9.17,6.3,15.51,14.72,15.55s14.6-6.24,14.89-15.39C240.67,133.69,240.54,128.53,240.54,123.38ZM70.15,362c0-5.65.12-11.3,0-16.95a14.58,14.58,0,1,0-29.16.24q-.2,16.44,0,32.9a14.58,14.58,0,0,0,29.16.26C70.26,373,70.15,367.5,70.15,362Zm170.5,104.34c.12-7.87-6.86-15-14.79-15.11s-15,6.87-15.12,14.79,6.87,15,14.8,15.12S240.54,474.3,240.65,466.36ZM70.26,285.23a14.71,14.71,0,1,0-15,14.59A14.52,14.52,0,0,0,70.26,285.23Z"></path><path d="M51.41,104.79c-3.65,0-7.31.14-10.95,0-8.6-.39-15.35-7.33-15.13-15.39S31.93,75,40.58,74.74c7.3-.19,14.62-.22,21.91,0,8.63.28,14.74,6.69,14.7,15s-6.28,14.62-14.82,15C58.72,104.93,55.06,104.79,51.41,104.79Z"></path><path d="M400.45,74.73c3.65,0,7.31-.16,10.95,0a15,15,0,0,1,.44,29.9c-7.78.42-15.61.39-23.39,0a14.8,14.8,0,0,1-14.23-15.53c.23-8,6.32-14.06,14.77-14.42,3.81-.17,7.64,0,11.46,0Z"></path><path d="M88.73,0c1.8.94,5.55,2.1,8.26,4.46,5.5,4.78,10.56,10.09,15.57,15.4,6,6.4,5.85,15.6-.16,21.42C106.56,47,97.52,46.93,91.34,41,86,35.85,80.61,30.61,75.53,25.14,71.17,20.45,70.43,14.78,73,9S80.4.3,88.73,0Z"></path><path d="M334.34,28.13c1-1.79,2.47-5.69,5-8.67,4.41-5.15,9.44-9.79,14.34-14.51,6.64-6.4,15.74-6.5,21.77-.39s5.71,15.2-.72,21.8c-5,5.11-10,10.23-15.18,15.09-4.68,4.36-10.29,5.25-16.16,2.71S334.65,36.86,334.34,28.13Z"></path></g></g></svg>