<svg xmlns="http://www.w3.org/2000/svg" width="512" height="512" viewBox="0 0 512 512" fill="none"><path d="M480 56H456V32C456 18.768 445.232 8 432 8H32C18.768 8 8 18.768 8 32V400C8 413.232 18.768 424 32 424H306.832C307.336 424.696 307.728 425.472 308.272 426.152L326.12 448.464C316.896 462.648 312 479.056 312 496V504H456V496C456 479.056 451.104 462.648 441.88 448.464L459.728 426.152C467.64 416.256 472 403.832 472 391.168V308.496C472 298.248 465.504 289.32 456 285.96V232H480C493.232 232 504 221.232 504 208V80C504 66.768 493.232 56 480 56ZM32 24H432C436.408 24 440 27.584 440 32V56H288C277.584 56 268.784 62.712 265.472 72H216V40H168V72H152V40H104V72H88V40H40V72H24V32C24 27.584 27.592 24 32 24ZM344 179.056V108.944C344 106.216 346.216 104 348.944 104C349.704 104 350.472 104.176 351.152 104.52L421.256 139.576C422.952 140.424 424 142.12 424 144C424 145.88 422.952 147.576 421.264 148.424L351.152 183.48C348.016 185.048 344 182.544 344 179.056ZM328 297.84C320.584 291.784 311.248 288 300.944 288C289.392 288 280 297.4 280 308.944C280 309.968 280.208 310.984 280.36 312H271.48C268.12 283.84 246.968 260.368 218.616 254.688L190.616 249.072L188.832 241.952C198.12 236.264 204.992 227.008 207.256 216H216.08C229.312 216 240.08 205.232 240.08 192C240.08 187.904 238.952 184.104 237.136 180.728L238.344 175.896C239.496 171.32 240.08 166.592 240.08 161.856C240.08 129.952 214.12 104 182.216 104H137.936C106.032 104 80.08 129.952 80.08 161.856C80.08 166.584 80.664 171.312 81.808 175.888L83.016 180.736C81.208 184.112 80.08 187.912 80.08 192C80.08 205.232 90.848 216 104.08 216H112.904C115.168 227 122.04 236.264 131.328 241.944L129.544 249.064L101.48 254.672C73.128 260.344 51.96 283.824 48.6 311.992H24V88H264V208C264 221.232 274.768 232 288 232H328V297.84ZM112.08 200H104.08C99.672 200 96.08 196.416 96.08 192C96.08 187.584 99.672 184 104.08 184H112.08V200ZM112.736 168H104.08C101.528 168 99.12 168.504 96.816 169.248C96.376 166.808 96.08 164.344 96.08 161.864C96.08 138.784 114.856 120.008 137.936 120.008H182.216C205.296 120.008 224.08 138.792 224.08 161.864C224.08 164.344 223.784 166.808 223.344 169.248C221.04 168.504 218.632 168 216.08 168H208.08H200.08H190.744C177.152 168 163.544 164.792 151.392 158.712L142.392 154.208C139.496 152.768 136.256 152 133.024 152C123.184 152 114.976 158.84 112.736 168ZM208.08 184H216.08C220.488 184 224.08 187.584 224.08 192C224.08 196.416 220.488 200 216.08 200H208.08V184ZM128.08 172.944C128.08 170.216 130.296 168 133.024 168C133.784 168 134.552 168.176 135.232 168.52L144.232 173.024C158.6 180.2 174.68 184 190.744 184H192.08V207.92C192.08 221.152 181.312 231.92 168.08 231.92H152.08C138.848 231.92 128.08 221.152 128.08 207.92V172.944ZM186.768 264.624L195.32 266.336L187.872 284.952L173.576 277.808L186.768 264.624ZM152.08 247.92H168.08C170 247.92 171.84 247.616 173.688 247.352L175.232 253.528L160.08 268.68L144.928 253.528L146.472 247.352C148.32 247.616 150.16 247.92 152.08 247.92ZM133.384 264.616L146.576 277.808L132.28 284.952L124.832 266.328L133.384 264.616ZM108.872 269.52L123.88 307.048L160.08 288.944L196.28 307.048L211.28 269.536L215.472 270.376C236.36 274.56 252.072 291.472 255.312 312H64.776C68.024 291.464 83.736 274.544 104.624 270.368L108.872 269.52ZM72 72H56V56H72V72ZM136 72H120V56H136V72ZM200 72H184V56H200V72ZM32 408C27.592 408 24 404.416 24 400V328H287.056L291.776 337.448C294.536 342.968 296 349.16 296 355.328V391.16C296 396.904 297.008 402.568 298.728 407.992L32 408ZM328.448 488C329.712 476.752 333.632 465.984 339.968 456.472L340.28 456H427.72L428.032 456.472C434.368 465.984 438.288 476.752 439.552 488H328.448ZM456 391.168C456 400.216 452.888 409.088 447.232 416.152L428.152 440H339.848L320.768 416.152C315.112 409.088 312 400.208 312 391.168V355.336C312 346.688 309.96 338.032 306.088 330.296L296.52 311.16C296.176 310.48 296 309.712 296 308.944C296 306.216 298.216 304 300.944 304C315.864 304 328 316.144 328 331.056V344V368H344V344V331.056V208C344 203.584 347.592 200 352 200C356.408 200 360 203.584 360 208V261.752V368H376V282.248L392 286.248V368H408V290.248L424 294.248V368H440V298.24L449.936 300.728C453.504 301.624 456 304.816 456 308.496V391.168ZM440 281.752L408 273.752L392 269.752L376 265.752V232H440V281.752ZM488 208C488 212.416 484.408 216 480 216H376V208C376 201.856 373.608 196.296 369.8 192.048L428.432 162.736C435.56 159.16 440 151.984 440 144C440 136.016 435.56 128.84 428.424 125.264L358.312 90.208C355.416 88.768 352.176 88 348.944 88C337.392 88 328 97.4 328 108.944V179.056C328 184.424 330.088 189.28 333.424 192.992C330.088 197.112 328 202.288 328 208V216H288C283.592 216 280 212.416 280 208V80C280 75.584 283.592 72 288 72H480C484.408 72 488 75.584 488 80V208Z" fill="black"></path><path d="M96 344C85.584 344 76.784 350.712 73.472 360H40V376H73.472C76.784 385.288 85.584 392 96 392C106.416 392 115.216 385.288 118.528 376H280V360H118.528C115.216 350.712 106.416 344 96 344ZM96 376C91.592 376 88 372.416 88 368C88 363.584 91.592 360 96 360C100.408 360 104 363.584 104 368C104 372.416 100.408 376 96 376Z" fill="black"></path></svg>