<svg xmlns="http://www.w3.org/2000/svg" width="558" height="659" viewBox="0 0 558 659" fill="none"><rect x="34" y="136" width="493" height="500" rx="59" fill="#5289DF"></rect><rect x="34" y="34" width="405" height="500" rx="59" fill="#5289DF"></rect><path d="M547.057 154.698L402.483 9.95029C398.679 6.14043 393.518 4 388.138 4H79.329C38.3446 4 5 37.3849 5 78.4199V579.58C5 620.615 38.3446 654 79.329 654H478.671C519.655 654 553 620.615 553 579.58V169.062C553 163.674 550.862 158.507 547.057 154.698ZM408.426 73.352L483.733 148.749H408.426V73.352ZM478.671 613.375H79.329C60.7173 613.375 45.5761 598.216 45.5761 579.58V78.4199C45.5761 59.7845 60.7185 44.625 79.329 44.625H367.85V169.062C367.85 180.281 376.933 189.374 388.138 189.374H512.424V579.58C512.424 598.216 497.281 613.375 478.671 613.375Z" fill="#5289DF"></path><path d="M499.945 182.156L385.932 68.1426C380.4 62.6087 372.895 59.5 365.071 59.5H121.531C81.7531 59.5 49.4121 91.8413 49.4121 131.62V526.38C49.4121 566.159 81.7531 598.5 121.531 598.5H436.469C476.247 598.5 508.588 566.159 508.588 526.38V203.018C508.588 195.194 505.48 187.69 499.947 182.158C499.947 182.158 499.946 182.157 499.945 182.156ZM394.571 173.518V160.22L407.869 173.518H394.571ZM436.469 539.5H121.531C114.309 539.5 108.412 533.603 108.412 526.38V131.62C108.412 124.397 114.31 118.5 121.531 118.5H335.571V203.018C335.571 219.311 348.778 232.518 365.071 232.518H449.588V526.38C449.588 533.603 443.69 539.5 436.469 539.5Z" fill="white" stroke="#5289DF" stroke-width="27"></path></svg>