<svg width="397" height="217" viewBox="0 0 397 217" fill="none" xmlns="http://www.w3.org/2000/svg">
<g clip-path="url(#clip0_169_6)">
<path d="M198.48 150.44C183.601 150.452 169.053 146.051 156.676 137.794C144.299 129.537 134.648 117.794 128.945 104.052C123.242 90.3092 121.743 75.1841 124.637 60.5895C127.531 45.9948 134.688 32.5863 145.203 22.0598C155.719 11.5333 169.12 4.36171 183.711 1.4522C198.303 -1.4573 213.429 0.0259442 227.178 5.71433C240.926 11.4027 252.679 21.0407 260.949 33.4092C269.22 45.7778 273.636 60.3212 273.64 75.2C273.635 95.1394 265.717 114.262 251.625 128.369C237.534 142.475 218.42 150.414 198.48 150.44ZM245.41 27.6C243.65 28.98 237.76 35 237.14 36.14C237.584 36.4512 238.011 36.785 238.42 37.14C245.494 44.1955 250.457 53.086 252.75 62.81C253.07 64.17 253.07 64.18 251.91 64.86L215.41 86C215.06 86.2 214.67 86.35 214.09 86.62V11.14C211.59 10.2 204.25 9.33001 202.49 9.72001C202.19 11.14 202.23 139.45 202.57 140.72C206.461 140.651 210.331 140.148 214.11 139.22V137.29C214.11 125.443 214.11 113.593 214.11 101.74C214.042 101.344 214.103 100.936 214.283 100.576C214.463 100.217 214.752 99.9236 215.11 99.74C227.777 92.52 240.444 85.27 253.11 77.99C253.471 77.8152 253.842 77.6616 254.22 77.53C253.22 94.15 246.16 107.44 233.53 117.7C236.34 120.51 239.05 123.21 241.76 125.93C272.16 102.05 274.3 54.41 245.41 27.6ZM194.41 140.68V9.54001C190.478 9.59107 186.564 10.0808 182.74 11V64.94L144.1 87.24C143.78 85.47 143.46 83.98 143.25 82.47C143.04 80.96 142.87 79.33 142.78 77.75C142.69 76.17 142.71 74.68 142.78 73.15C142.85 71.62 142.95 70.08 143.14 68.56C143.33 67.04 143.6 65.43 143.93 63.89C144.26 62.35 144.64 60.89 145.09 59.43C145.54 57.97 146.09 56.52 146.63 55.1C147.17 53.68 147.88 52.19 148.63 50.78C149.38 49.37 150.08 48.07 150.89 46.78C151.7 45.49 152.57 44.2 153.49 42.98C154.41 41.76 155.49 40.49 156.49 39.3C157.49 38.11 158.54 37.08 159.42 36.14L151.12 27.77C142.564 36.0091 136.411 46.421 133.32 57.89C129.247 72.4509 130.425 87.9808 136.65 101.76C140.783 111.166 147.069 119.469 155 126L163.45 117.68C156.977 112.598 151.756 106.098 148.19 98.68C150.33 97.09 181.54 79.14 182.7 78.86V119.15C182.7 122.51 182.7 125.87 182.7 129.23C182.7 132.59 182.59 135.9 182.79 139.28C186.609 140.145 190.506 140.614 194.42 140.68H194.41Z" fill="#2C5697"/>
<path d="M138.001 182.22V216.1C136.651 216.1 135.371 216.1 134.101 216.1C131.261 216.05 132.031 216.53 130.581 214.1C126.809 207.526 122.519 201.263 117.751 195.37C117.471 195.03 117.191 194.71 116.891 194.37C116.843 194.316 116.535 194.112 116.521 194.22C116.343 195.626 116.391 197.02 116.391 198.46C116.391 199.9 116.391 201.34 116.391 202.78V216C114 216 111.5 216 109 216C109 214.5 109.001 183.5 109 182C110.5 182 111.365 182 112.5 182C115.36 182 115.271 182.13 117.151 184.27C121.548 189.408 125.628 194.808 129.371 200.44C129.644 200.84 129.924 201.23 130.211 201.61C130.211 201.66 130.371 201.66 130.641 201.73V182.27C133 182.27 135.344 182.27 138.001 182.22Z" fill="#2C5697"/>
<path d="M102.001 182.22V216.1C100.651 216.1 99.3709 216.1 98.1009 216.1C95.2609 216.05 96.0309 216.53 94.5809 214.1C90.8088 207.526 86.5185 201.263 81.7509 195.37C81.4709 195.03 81.1909 194.71 80.8909 194.37C80.8429 194.316 80.5346 194.112 80.5209 194.22C80.3432 195.626 80.3909 197.02 80.3909 198.46C80.3909 199.9 80.3909 201.34 80.3909 202.78V216C78 216 75.5 216 73 216C73 214.5 73.0007 183.5 73.0001 182C74.5 182 75.365 182 76.5 182C79.36 182 79.2709 182.13 81.1509 184.27C85.5476 189.408 89.6284 194.808 93.3709 200.44C93.6442 200.84 93.9242 201.23 94.2109 201.61C94.2109 201.66 94.3709 201.66 94.6409 201.73V182.27C97.0003 182.27 99.344 182.27 102.001 182.22Z" fill="#2C5697"/>
<path d="M303 199.5C303 200.5 303 202 302.071 204.84C301.032 208.016 299.53 211.02 296.963 213.16C294.397 215.301 291.199 216.541 287.861 216.69C285.71 216.895 283.541 216.764 281.431 216.3C278.17 215.593 275.22 213.866 273.008 211.368C270.796 208.87 269.438 205.732 269.131 202.41C268.714 199.364 268.897 196.266 269.671 193.29C270.539 189.944 272.472 186.971 275.178 184.819C277.883 182.667 281.215 181.453 284.671 181.36C286.879 181.224 289.093 181.465 291.221 182.07C297.661 184.07 301.118 188.5 302.411 195.01C302.681 196.37 303 198.5 303 199.5ZM276.771 198.85C276.674 200.938 277.043 203.022 277.851 204.95C278.477 206.554 279.593 207.92 281.04 208.853C282.487 209.787 284.172 210.15 285.911 210.15C287.68 210.15 289.356 209.784 290.798 208.825C292.241 207.865 293.333 206.463 293.911 204.83C294.69 202.989 295.092 201.01 295.092 199.01C295.092 197.01 294.69 195.031 293.911 193.19C293.322 191.594 292.239 190.227 290.82 189.289C289.401 188.35 287.72 187.888 286.021 187.97C284.326 187.881 282.646 188.321 281.212 189.229C279.779 190.138 278.664 191.469 278.021 193.04C277.161 194.854 276.733 196.843 276.771 198.85Z" fill="#2C5697"/>
<path d="M0 182.5H7.60047V195.26C9 195.26 18.5 195.26 20.6005 195.26C20.7605 193.17 20.6505 191.03 20.6705 188.9C20.6905 186.77 20.6705 184.71 20.6705 182.51H27.9305C27.9999 183.76 27.9999 214.76 28.0005 216.26H20.6705C20.6705 211.51 20.6605 206.859 20.6005 202.14C19.5 202.14 9.5 202.14 7.66047 202.14V216.26C5.00021 216.26 2.24995 216.26 0.000198886 216.26C0.000124246 215.08 -0.33 184.12 0 182.5Z" fill="#2C5697"/>
<path d="M234.146 182.5H241.747V195.26C243.146 195.26 252.646 195.26 254.747 195.26C254.907 193.17 254.797 191.03 254.817 188.9C254.837 186.77 254.817 184.71 254.817 182.51H262.077C262.146 183.76 262.146 214.76 262.147 216.26H254.817C254.817 211.51 254.807 206.859 254.747 202.14C253.646 202.14 243.646 202.14 241.807 202.14V216.26C239.147 216.26 236.396 216.26 234.147 216.26C234.147 215.08 233.816 184.12 234.146 182.5Z" fill="#2C5697"/>
<path d="M329 182.23H336.5C336.5 182.5 336.5 183.47 336.5 184C336.5 190.48 336.55 196.76 336.55 203.18C336.548 204.663 336.383 206.142 336.06 207.59C335.661 209.632 334.686 211.517 333.251 213.023C331.816 214.529 329.98 215.593 327.96 216.09C324.7 217.026 321.252 217.088 317.96 216.27C312.51 214.96 309.24 210.91 308.84 205.1C308.75 203.67 308.78 202.23 308.78 200.79C308.78 195.23 308.78 189.67 308.78 184.11V182.21C311.219 182.21 313.688 182.21 316.29 182.23C316.29 182.86 316.29 183.39 316.29 183.94C316.29 189.94 316.29 196.02 316.29 202.06C316.29 203.447 316.468 204.828 316.82 206.17C317.65 209.17 319.7 210.36 323.1 210.22C324.411 210.247 325.688 209.804 326.7 208.971C327.713 208.139 328.394 206.971 328.62 205.68C328.842 204.601 328.949 203.501 328.94 202.4C328.94 196.32 329 190.09 329 184L329 182.23Z" fill="#2C5697"/>
<path d="M380.561 195.24H393.901C393.901 197.328 393.901 199.339 393.901 201.44C392.5 201.44 390.881 201.44 389.391 201.44C387.901 201.44 386.391 201.44 384.921 201.44H380.561C380.561 204.5 380.561 207 380.561 209.79C381.271 209.79 381.541 209.79 382.101 209.79H396.711C396.711 212 396.711 214 396.711 216.02H373.001C373 215 373 185 373 182.35C374 182.35 393.5 182.35 395.541 182.35V188.48C394.5 188.48 393.171 188.48 391.871 188.48C390.571 188.48 389.281 188.48 387.981 188.48H380.561C380.561 190.5 380.5 193 380.561 195.24Z" fill="#2C5697"/>
<path d="M67.01 216.012H59.01C58.84 215.572 58.63 215.012 58.44 214.532C55.9667 207.572 53.4967 200.615 51.03 193.662C50.7599 192.888 50.3973 192.149 49.95 191.462C46.39 199.462 43.87 207.792 40.95 216.032H33C33.16 215.482 33.27 215.032 33.42 214.592C36.9933 204.205 41.03 194.012 45.53 184.012C46.5622 181.718 46.1494 182.012 48.6494 182.012C50.3937 182.012 51.5 182 53 182C53 182 53.3637 182.012 53.6494 182.512C55.6494 186.012 66.71 213.072 67.01 216.012Z" fill="#2C5697"/>
<path d="M178.01 216.012H170.01C169.84 215.572 169.63 215.012 169.44 214.532C166.967 207.572 164.497 200.615 162.03 193.662C161.76 192.888 161.397 192.149 160.95 191.462C157.39 199.462 154.87 207.792 151.95 216.032H144C144.16 215.482 144.27 215.032 144.42 214.592C147.993 204.205 152.03 194.012 156.53 184.012C157.562 181.718 157.149 182.012 159.649 182.012C161.394 182.012 162.5 182 164 182C164 182 164.364 182.012 164.649 182.512C166.649 186.012 177.71 213.072 178.01 216.012Z" fill="#2C5697"/>
<path d="M212.63 189.53L210.44 188.66C208.091 187.785 205.555 187.534 203.08 187.93C202.702 187.992 202.33 188.09 201.97 188.22C201.5 188.375 201.079 188.65 200.749 189.019C200.419 189.388 200.192 189.837 200.091 190.321C199.989 190.806 200.017 191.308 200.172 191.778C200.326 192.249 200.601 192.67 200.97 193C201.821 193.698 202.776 194.258 203.8 194.66C205.68 195.48 207.65 196.13 209.54 196.96C210.636 197.435 211.684 198.015 212.67 198.69C213.773 199.428 214.682 200.42 215.323 201.582C215.963 202.745 216.315 204.043 216.35 205.37C216.444 206.473 216.417 207.583 216.27 208.68C216.093 210.043 215.581 211.341 214.78 212.458C213.979 213.574 212.914 214.475 211.68 215.08C210.14 215.875 208.464 216.374 206.74 216.55C202.494 217.137 198.17 216.713 194.12 215.31C193.36 215.03 192.64 214.66 191.75 214.26C192.34 212.26 193.08 210.34 193.83 208.33C194.39 208.55 194.83 208.71 195.26 208.89C198.369 210.207 201.777 210.653 205.12 210.18C205.597 210.12 206.064 209.999 206.51 209.82C207.033 209.639 207.499 209.323 207.863 208.905C208.226 208.488 208.473 207.982 208.581 207.439C208.688 206.896 208.651 206.334 208.474 205.81C208.296 205.285 207.985 204.817 207.57 204.45C206.854 203.814 206.036 203.303 205.15 202.94C203.71 202.29 202.2 201.81 200.74 201.2C199.439 200.709 198.173 200.131 196.95 199.47C195.424 198.677 194.167 197.449 193.339 195.941C192.511 194.433 192.15 192.714 192.3 191C192.312 189.258 192.83 187.556 193.79 186.103C194.751 184.649 196.112 183.505 197.71 182.81C199.013 182.202 200.398 181.784 201.82 181.57C205.888 180.902 210.063 181.451 213.82 183.15C214.12 183.29 214.38 183.49 214.82 183.75L212.63 189.53Z" fill="#2C5697"/>
<path d="M365.001 183.75C364.291 185.75 363.621 187.54 362.891 189.53L361.371 188.93C358.928 187.893 356.247 187.547 353.621 187.93C353.146 187.981 352.679 188.089 352.231 188.25C351.76 188.401 351.339 188.674 351.008 189.041C350.677 189.408 350.45 189.856 350.348 190.34C350.247 190.823 350.275 191.325 350.43 191.794C350.585 192.263 350.861 192.682 351.231 193.01C352.076 193.713 353.028 194.277 354.051 194.68C355.891 195.49 357.821 196.11 359.651 196.93C360.881 197.485 362.056 198.155 363.161 198.93C364.047 199.515 364.796 200.284 365.359 201.185C365.921 202.086 366.284 203.097 366.421 204.15C366.647 205.616 366.694 207.103 366.561 208.58C366.414 209.999 365.902 211.356 365.075 212.518C364.248 213.68 363.133 214.607 361.841 215.21C360.337 215.968 358.706 216.442 357.031 216.61C352.594 217.239 348.071 216.751 343.871 215.19C343.381 214.99 342.871 214.74 342.441 214.5C342.321 214.44 342.221 214.33 342.021 214.19C342.701 212.27 343.361 210.39 344.081 208.37L345.521 208.95C348.629 210.269 352.036 210.722 355.381 210.26C355.854 210.185 356.32 210.064 356.771 209.9C357.296 209.722 357.765 209.409 358.132 208.993C358.498 208.577 358.749 208.072 358.859 207.528C358.97 206.985 358.936 206.422 358.76 205.896C358.585 205.37 358.275 204.899 357.861 204.53C357.089 203.886 356.231 203.354 355.311 202.95C353.871 202.31 352.311 201.84 350.891 201.23C349.591 200.731 348.328 200.143 347.111 199.47C345.594 198.657 344.354 197.413 343.546 195.894C342.737 194.376 342.398 192.652 342.571 190.94C342.598 189.244 343.109 187.59 344.042 186.174C344.975 184.757 346.293 183.635 347.841 182.94C349.222 182.28 350.695 181.831 352.211 181.61C356.287 180.963 360.463 181.541 364.211 183.27C364.411 183.34 364.641 183.51 365.001 183.75Z" fill="#2C5697"/>
<path d="M181.39 193.14C180.391 188.443 180.008 183.636 180.25 178.84C182.59 178.79 184.85 178.76 187.2 178.84C187.445 183.587 187.082 188.345 186.12 193C185.89 193.081 185.652 193.138 185.41 193.17C184.13 193.15 182.84 193.14 181.39 193.14Z" fill="#2C5697"/>
</g>
<defs>
<clipPath id="clip0_169_6">
<rect width="396.82" height="216.83" fill="white"/>
</clipPath>
</defs>
</svg>
