<svg xmlns="http://www.w3.org/2000/svg" width="36" height="36" viewBox="0 0 36 36" fill="none"><g id="ic_Menu"><path id="Shape" fill-rule="evenodd" clip-rule="evenodd" d="M3.13514 10.8H32.8649C33.7679 10.8 34.5 10.0613 34.5 9.15C34.5 8.23873 33.7679 7.5 32.8649 7.5H3.13514C2.23207 7.5 1.5 8.23873 1.5 9.15C1.5 10.0613 2.23207 10.8 3.13514 10.8ZM2.76351 19.8003H27.9865C28.6843 19.8003 29.25 19.1287 29.25 18.3003C29.25 17.4719 28.6843 16.8003 27.9865 16.8003H2.76351C2.06569 16.8003 1.5 17.4719 1.5 18.3003C1.5 19.1287 2.06569 19.8003 2.76351 19.8003ZM17.8649 29.1003L3.13514 29.1003C2.23207 29.1003 1.5 28.3616 1.5 27.4503C1.5 26.539 2.23207 25.8003 3.13514 25.8003H17.8649C18.7679 25.8003 19.5 26.539 19.5 27.4503C19.5 28.3616 18.7679 29.1003 17.8649 29.1003Z" fill="#333333"></path></g></svg>