<svg xmlns="http://www.w3.org/2000/svg" width="38" height="51" viewBox="0 0 38 51" fill="none"><path d="M36.2852 9.82031C37.1641 10.6992 37.75 11.9688 37.75 13.1406V45.5625C37.75 48.1992 35.6016 50.25 33.0625 50.25H4.9375C2.30078 50.25 0.25 48.1992 0.25 45.5625V4.9375C0.25 2.39844 2.30078 0.25 4.9375 0.25H24.8594C26.0312 0.25 27.3008 0.738281 28.1797 1.61719L36.2852 9.82031ZM32.6719 12.75L25.25 5.32812V12.75H32.6719ZM4.9375 45.5625H33.0625V17.4375H22.9062C21.5391 17.4375 20.5625 16.4609 20.5625 15.0938V4.9375H4.9375V45.5625Z" fill="white"></path><path d="M36.2852 9.82031L30.5945 15.4432L30.6114 15.4602L30.6283 15.4772L36.2852 9.82031ZM28.1797 1.61719L33.8703 -4.00569L33.8535 -4.02273L33.8365 -4.03967L28.1797 1.61719ZM32.6719 12.75V20.75H51.9856L38.3287 7.09315L32.6719 12.75ZM25.25 5.32812L30.9069 -0.32873L17.25 -13.9856V5.32812H25.25ZM25.25 12.75H17.25V20.75H25.25V12.75ZM4.9375 45.5625H-3.0625V53.5625H4.9375V45.5625ZM33.0625 45.5625V53.5625H41.0625V45.5625H33.0625ZM33.0625 17.4375H41.0625V9.4375H33.0625V17.4375ZM20.5625 4.9375H28.5625V-3.0625H20.5625V4.9375ZM4.9375 4.9375V-3.0625H-3.0625V4.9375H4.9375ZM30.6283 15.4772C30.3563 15.2052 30.1729 14.9246 30.0431 14.6341C29.9179 14.3538 29.75 13.8544 29.75 13.1406H45.75C45.75 9.54012 44.0893 6.31074 41.942 4.16346L30.6283 15.4772ZM29.75 13.1406V45.5625H45.75V13.1406H29.75ZM29.75 45.5625C29.75 43.6728 31.2922 42.25 33.0625 42.25V58.25C39.9109 58.25 45.75 52.7256 45.75 45.5625H29.75ZM33.0625 42.25H4.9375V58.25H33.0625V42.25ZM4.9375 42.25C5.74501 42.25 6.60676 42.5831 7.26183 43.2382C7.91691 43.8932 8.25 44.755 8.25 45.5625H-7.75C-7.75 52.6175 -2.1175 58.25 4.9375 58.25V42.25ZM8.25 45.5625V4.9375H-7.75V45.5625H8.25ZM8.25 4.9375C8.25 6.7078 6.82719 8.25 4.9375 8.25V-7.75C-2.22563 -7.75 -7.75 -1.91093 -7.75 4.9375H8.25ZM4.9375 8.25H24.8594V-7.75H4.9375V8.25ZM24.8594 8.25C24.3608 8.25 23.9558 8.15216 23.6311 8.02088C23.3026 7.8881 22.9104 7.66163 22.5228 7.27404L33.8365 -4.03967C31.3884 -6.48778 28.0535 -7.75 24.8594 -7.75V8.25ZM22.4891 7.24007L30.5945 15.4432L41.9758 4.19743L33.8703 -4.00569L22.4891 7.24007ZM38.3287 7.09315L30.9069 -0.32873L19.5931 10.985L27.015 18.4069L38.3287 7.09315ZM17.25 5.32812V12.75H33.25V5.32812H17.25ZM25.25 20.75H32.6719V4.75H25.25V20.75ZM4.9375 53.5625H33.0625V37.5625H4.9375V53.5625ZM41.0625 45.5625V17.4375H25.0625V45.5625H41.0625ZM33.0625 9.4375H22.9062V25.4375H33.0625V9.4375ZM22.9062 9.4375C24.1795 9.4375 25.6805 9.92348 26.8785 11.1215C28.0765 12.3195 28.5625 13.8205 28.5625 15.0938H12.5625C12.5625 20.8792 17.1208 25.4375 22.9062 25.4375V9.4375ZM28.5625 15.0938V4.9375H12.5625V15.0938H28.5625ZM20.5625 -3.0625H4.9375V12.9375H20.5625V-3.0625ZM-3.0625 4.9375V45.5625H12.9375V4.9375H-3.0625Z" fill="#5289DF"></path></svg>