<?xml version="1.0" standalone="no"?>
<!DOCTYPE svg PUBLIC "-//W3C//DTD SVG 20010904//EN"
 "http://www.w3.org/TR/2001/REC-SVG-20010904/DTD/svg10.dtd">
<svg version="1.0" xmlns="http://www.w3.org/2000/svg"
 width="424.000000pt" height="424.000000pt" viewBox="0 0 424.000000 424.000000"
 preserveAspectRatio="xMidYMid meet">

<g transform="translate(0.000000,424.000000) scale(0.100000,-0.100000)"
fill="#000000" stroke="none">
<path d="M572 3879 c-92 -17 -178 -92 -202 -177 -15 -54 -12 -179 5 -247 9
-32 30 -86 48 -119 58 -112 307 -336 372 -336 59 0 300 209 359 313 73 126 98
290 59 402 -49 144 -222 210 -362 138 l-56 -29 -55 27 c-64 32 -108 39 -168
28z m82 -183 c18 -7 43 -30 55 -50 26 -41 48 -56 85 -56 40 0 55 10 86 55 37
53 85 73 127 53 41 -19 55 -54 50 -123 -7 -86 -39 -161 -99 -233 -51 -59 -146
-142 -165 -142 -11 0 -124 99 -162 143 -46 52 -92 158 -98 225 -6 66 13 117
50 132 30 12 33 12 71 -4z"/>
<path d="M2030 3879 c-268 -21 -473 -192 -571 -476 -16 -48 -24 -83 -45 -210
-3 -20 -11 -33 -20 -33 -23 0 -110 -47 -148 -81 -19 -17 -48 -56 -63 -87 -24
-50 -27 -69 -28 -157 0 -84 4 -107 23 -146 47 -95 142 -163 282 -199 64 -17
64 -18 98 -81 19 -35 52 -88 74 -117 l40 -53 -23 -56 c-20 -49 -55 -102 -131
-195 -50 -63 23 -154 101 -127 38 13 116 106 162 192 17 33 36 56 42 53 204
-90 369 -98 530 -24 45 21 72 29 74 21 9 -25 81 -136 117 -179 41 -49 93 -78
123 -67 39 13 63 46 63 84 0 31 -9 48 -50 96 -46 53 -110 165 -110 192 0 7 22
44 49 84 27 40 59 93 71 118 21 43 25 46 80 57 81 17 191 75 235 123 60 67 79
120 79 219 -1 172 -78 277 -246 333 -11 4 -19 22 -23 54 -45 338 -243 586
-515 647 -84 18 -164 23 -270 15z m213 -184 c185 -39 316 -174 379 -392 20
-67 23 -100 22 -243 0 -182 -15 -281 -64 -435 -57 -176 -173 -325 -297 -383
-51 -23 -70 -27 -163 -27 -98 0 -109 2 -171 32 -119 58 -227 197 -285 364 -62
180 -90 466 -61 624 17 93 58 202 97 260 116 170 324 247 543 200z m-793 -962
c5 -23 10 -46 10 -52 0 -20 -60 11 -95 50 -31 35 -35 45 -35 95 0 62 17 102
57 134 l28 22 12 -104 c7 -56 17 -122 23 -145z m1417 215 c63 -65 63 -167 1
-227 -29 -28 -73 -50 -82 -40 -2 2 2 33 10 69 7 36 16 102 20 148 4 45 10 82
13 82 4 0 21 -15 38 -32z"/>
<path d="M2072 2984 c-29 -20 -96 -119 -132 -196 -50 -106 -51 -181 -3 -239
38 -45 96 -70 164 -72 74 -2 104 21 104 83 0 50 -28 80 -82 89 -33 6 -38 10
-35 31 1 14 30 67 63 120 49 78 59 100 54 125 -12 65 -81 96 -133 59z"/>
<path d="M3222 3879 c-92 -17 -178 -92 -202 -177 -15 -54 -12 -179 5 -247 9
-32 30 -86 48 -119 58 -112 307 -336 372 -336 59 0 300 209 359 313 73 126 98
290 59 402 -49 144 -222 210 -362 138 l-56 -29 -55 27 c-64 32 -108 39 -168
28z m83 -184 c20 -8 44 -29 56 -50 24 -40 46 -55 83 -55 40 0 55 10 86 55 70
102 179 70 180 -51 0 -118 -76 -251 -202 -349 -31 -25 -59 -45 -63 -45 -11 0
-56 38 -121 101 -107 104 -165 252 -134 342 9 25 25 46 40 54 32 16 34 16 75
-2z"/>
<path d="M693 2106 c-60 -19 -99 -51 -130 -104 l-28 -47 0 -405 0 -405 27 -57
c35 -75 109 -148 184 -183 32 -14 172 -77 309 -138 288 -129 273 -115 274
-269 1 -103 5 -114 43 -134 38 -20 82 -10 108 23 17 22 20 41 20 138 0 137
-16 189 -74 248 -36 35 -90 63 -344 176 -166 73 -310 143 -320 155 -51 56 -52
60 -52 445 0 314 2 362 16 375 8 9 23 16 33 16 43 0 50 -19 81 -225 35 -228
57 -288 125 -340 35 -26 440 -203 516 -225 35 -10 87 13 99 45 13 35 13 231 0
256 -6 10 -58 51 -116 90 -58 38 -108 77 -111 85 -11 29 14 64 46 64 34 0 404
-206 434 -241 16 -20 17 -59 17 -515 0 -539 1 -554 55 -574 43 -16 65 -12 96
20 l30 29 -3 533 -3 533 -27 46 c-15 26 -41 58 -57 72 -34 28 -398 239 -454
262 -121 50 -269 -26 -303 -157 -29 -109 18 -202 139 -277 20 -12 37 -24 37
-26 0 -2 -60 21 -132 51 -73 31 -138 58 -144 60 -25 11 -44 77 -69 244 -33
220 -38 237 -76 283 -58 71 -160 101 -246 73z"/>
<path d="M3385 2101 c-51 -23 -111 -89 -125 -138 -6 -21 -24 -123 -40 -228
-26 -170 -32 -192 -53 -211 -24 -20 -104 -57 -227 -103 -58 -22 -58 -22 31 44
120 88 121 270 1 362 -48 37 -120 55 -178 44 -58 -11 -467 -244 -514 -293 -70
-73 -70 -77 -70 -654 l0 -513 23 -26 c30 -36 86 -38 121 -6 l25 24 3 511 c2
409 6 515 16 531 8 11 107 73 220 138 215 123 239 131 262 87 19 -35 2 -56
-96 -121 -134 -88 -134 -88 -134 -226 0 -113 0 -115 29 -144 17 -17 40 -29 55
-29 23 0 407 154 494 199 51 26 105 87 126 142 9 24 29 128 45 232 16 103 34
194 41 202 15 18 61 20 78 3 19 -19 17 -717 -2 -761 -25 -59 -68 -85 -347
-210 -315 -141 -336 -152 -374 -201 -44 -58 -54 -100 -55 -229 0 -112 1 -119
25 -142 35 -36 96 -35 124 1 18 23 21 41 21 123 0 146 -13 134 306 275 148 65
288 130 312 143 84 48 142 124 167 220 21 79 21 758 1 816 -45 126 -193 192
-311 138z"/>
</g>
</svg>
