<?xml version="1.0" standalone="no"?>
<!DOCTYPE svg PUBLIC "-//W3C//DTD SVG 20010904//EN"
 "http://www.w3.org/TR/2001/REC-SVG-20010904/DTD/svg10.dtd">
<svg version="1.0" xmlns="http://www.w3.org/2000/svg"
 width="580.000000pt" height="580.000000pt" viewBox="0 0 580.000000 580.000000"
 preserveAspectRatio="xMidYMid meet">

<g transform="translate(0.000000,580.000000) scale(0.100000,-0.100000)"
fill="#000000" stroke="none">
<path d="M2605 5788 c-60 -5 -111 -14 -113 -19 -2 -5 -16 -9 -31 -9 -60 0
-379 -66 -391 -81 -3 -3 -61 -22 -130 -43 -68 -20 -127 -41 -130 -46 -3 -5
-24 -16 -48 -24 -23 -9 -61 -23 -84 -32 -24 -8 -45 -19 -48 -23 -3 -4 -41 -25
-85 -46 -44 -21 -81 -42 -83 -46 -2 -5 -25 -19 -50 -32 -67 -34 -91 -49 -120
-74 -14 -13 -30 -23 -36 -23 -6 0 -28 -15 -48 -33 -21 -17 -50 -42 -66 -54
-46 -35 -64 -123 -41 -194 15 -45 45 -76 86 -91 18 -7 33 -16 33 -20 0 -4 20
-8 45 -8 25 0 45 5 45 10 0 6 8 10 18 10 19 0 96 47 127 78 11 11 43 32 70 47
28 16 52 31 55 35 3 4 39 25 80 46 41 20 77 41 80 45 7 10 178 79 196 79 8 0
14 4 14 8 0 12 35 27 126 52 43 12 82 26 85 31 6 11 281 66 372 76 34 3 65 11
69 17 10 15 566 15 576 0 4 -6 39 -14 77 -18 102 -10 359 -64 363 -76 2 -5 9
-10 16 -10 22 0 211 -62 216 -71 3 -4 48 -25 100 -45 52 -20 97 -40 100 -45 3
-5 39 -25 80 -45 41 -20 77 -40 80 -44 3 -4 30 -22 60 -40 30 -18 59 -38 63
-46 4 -8 13 -14 19 -14 6 0 25 -10 42 -23 17 -13 39 -26 49 -30 9 -3 17 -11
17 -17 0 -6 -58 -10 -162 -10 -90 0 -179 -5 -199 -10 -46 -13 -106 -79 -115
-126 -12 -65 3 -118 48 -164 23 -23 56 -46 72 -51 44 -13 802 -11 849 2 20 5
37 13 37 17 0 4 17 25 38 46 l37 40 0 431 c0 370 -2 434 -15 447 -8 8 -29 31
-47 51 -80 89 -249 45 -283 -73 -5 -19 -10 -101 -10 -182 0 -82 -3 -148 -6
-148 -3 0 -23 14 -44 30 -21 17 -42 30 -46 30 -5 0 -22 14 -38 30 -16 17 -35
30 -41 30 -7 0 -24 11 -38 24 -25 23 -41 33 -132 80 -22 11 -44 25 -50 32 -5
7 -43 27 -84 44 -41 18 -80 38 -87 45 -7 6 -47 24 -91 40 -43 16 -80 32 -84
37 -6 10 -217 78 -241 78 -9 0 -18 4 -20 9 -4 12 -194 55 -318 72 -52 7 -97
16 -100 20 -18 24 -468 35 -685 17z"/>
<path d="M651 4696 c-18 -6 -44 -25 -57 -41 -14 -17 -30 -37 -38 -45 -7 -8
-28 -39 -46 -67 -17 -29 -35 -53 -40 -53 -4 0 -10 -8 -14 -17 -9 -28 -63 -125
-73 -132 -4 -3 -24 -37 -43 -76 -19 -38 -38 -73 -43 -76 -7 -5 -25 -48 -64
-154 -8 -22 -18 -42 -23 -45 -4 -3 -25 -61 -46 -130 -20 -69 -40 -127 -44
-130 -8 -6 -45 -163 -61 -262 -7 -43 -16 -78 -20 -78 -15 0 -34 -270 -34 -490
0 -231 18 -470 36 -470 5 0 9 -11 9 -25 0 -31 49 -275 58 -289 8 -14 43 -56
68 -82 54 -56 204 -35 245 35 38 62 39 99 8 254 -16 78 -31 173 -35 212 -4 38
-12 73 -18 77 -15 10 -16 576 0 586 5 4 16 50 23 102 16 123 60 324 72 328 5
2 9 10 9 19 0 25 73 237 86 251 7 6 15 22 19 35 8 29 48 121 56 127 3 3 22 38
43 79 21 41 44 80 52 88 8 9 24 34 35 57 12 22 30 50 40 61 32 33 79 109 79
128 0 9 5 17 10 17 6 0 10 20 10 45 0 25 -4 45 -8 45 -4 0 -13 15 -20 33 -29
81 -134 118 -231 83z"/>
<path d="M2761 4699 c-75 -13 -159 -38 -173 -53 -7 -6 -34 -22 -59 -34 -26
-12 -71 -45 -100 -72 -30 -27 -57 -49 -60 -50 -3 0 -23 -26 -45 -57 -21 -32
-42 -61 -47 -64 -11 -8 -66 -141 -67 -161 0 -9 -4 -18 -9 -20 -18 -6 -31 -130
-31 -285 0 -150 15 -303 30 -303 4 0 11 -12 15 -27 12 -52 59 -146 87 -177 15
-17 28 -35 28 -40 0 -25 187 -176 219 -176 5 0 11 -4 13 -10 5 -15 135 -59
195 -67 29 -3 53 -10 53 -14 0 -5 41 -9 90 -9 53 0 90 4 90 10 0 6 10 10 23
10 47 0 210 50 227 70 3 3 28 20 55 37 57 34 165 133 165 151 0 6 8 17 18 24
19 13 92 152 92 174 0 7 5 14 10 16 6 2 18 44 26 93 28 157 7 565 -28 565 -4
0 -8 5 -8 11 0 20 -69 158 -92 182 -13 14 -34 38 -48 54 -47 52 -115 108 -165
133 -27 14 -55 30 -62 37 -15 14 -95 37 -177 52 -69 13 -188 12 -265 0z m270
-372 c20 -7 43 -20 52 -29 9 -9 32 -26 51 -38 22 -13 45 -41 63 -76 15 -29 30
-54 34 -54 16 0 29 -107 29 -230 0 -124 -13 -230 -29 -230 -4 0 -18 -22 -30
-50 -12 -27 -37 -60 -54 -72 -18 -12 -34 -26 -36 -31 -1 -4 -28 -20 -60 -34
-48 -23 -69 -26 -156 -26 -87 0 -107 3 -157 26 -32 15 -58 30 -58 34 0 5 -15
18 -34 31 -37 25 -83 108 -93 167 -3 19 -10 35 -14 35 -5 0 -9 68 -9 150 0 83
3 150 8 150 4 0 13 23 19 50 7 28 21 64 33 79 11 16 20 33 20 38 0 5 21 25 48
43 26 19 49 37 52 41 7 10 57 30 100 40 46 11 175 3 221 -14z"/>
<path d="M5445 3798 c-11 -7 -26 -18 -33 -25 -7 -7 -17 -13 -22 -13 -13 0 -42
-51 -51 -89 -6 -25 0 -75 18 -171 15 -74 30 -137 34 -140 16 -12 33 -241 34
-450 0 -215 -18 -460 -35 -460 -4 0 -10 -21 -14 -47 -9 -68 -57 -267 -66 -273
-4 -3 -22 -51 -39 -108 -18 -56 -39 -109 -47 -116 -8 -8 -14 -18 -14 -23 0
-15 -75 -178 -89 -193 -8 -8 -22 -33 -32 -55 -10 -23 -30 -54 -44 -70 -14 -17
-25 -34 -25 -39 0 -5 -11 -24 -25 -42 -14 -18 -25 -35 -25 -38 0 -2 -13 -19
-29 -36 -84 -93 -59 -254 46 -292 18 -7 33 -16 33 -20 0 -4 20 -8 45 -8 25 0
45 5 45 10 0 6 9 10 19 10 20 0 100 59 100 74 1 5 12 24 26 42 14 18 25 36 25
41 0 5 14 23 30 42 17 18 36 47 44 65 7 17 20 38 28 47 8 8 29 44 47 81 17 37
38 73 45 81 14 14 86 186 86 206 0 6 4 11 9 11 9 0 32 57 57 145 9 33 20 62
25 65 9 6 64 222 75 297 4 26 10 50 15 53 4 3 15 68 25 145 26 197 26 605 0
800 -10 77 -22 142 -26 145 -4 3 -11 25 -15 50 -4 25 -16 83 -27 130 -18 75
-25 90 -61 124 -58 54 -141 73 -192 44z"/>
<path d="M2040 2885 c-72 -18 -127 -41 -153 -66 -11 -10 -26 -19 -31 -19 -19
0 -122 -114 -146 -160 -12 -25 -26 -47 -30 -50 -4 -3 -15 -27 -26 -55 -17 -45
-19 -90 -22 -490 -4 -500 -4 -500 70 -551 35 -25 51 -29 108 -29 57 0 73 4
108 28 71 50 72 54 72 507 0 258 4 409 11 427 18 49 81 101 130 108 24 3 384
5 800 3 l755 -3 37 -25 c21 -14 46 -43 57 -66 19 -38 20 -62 20 -442 0 -329 3
-409 15 -437 56 -136 278 -138 330 -3 14 39 16 92 13 483 -4 430 -4 441 -27
503 -12 34 -26 62 -31 62 -4 0 -14 15 -21 33 -14 35 -126 157 -144 157 -6 0
-22 10 -35 22 -12 12 -53 33 -89 47 l-66 26 -825 2 c-669 1 -835 -1 -880 -12z"/>
<path d="M860 1271 c0 -5 -12 -12 -27 -16 -38 -9 -81 -51 -88 -86 -4 -16 -11
-29 -16 -29 -5 0 -9 -165 -9 -405 0 -263 3 -405 10 -405 6 0 10 -8 10 -18 0
-10 13 -36 30 -58 61 -83 206 -86 267 -5 15 20 32 39 37 43 7 4 12 73 14 177
l4 171 36 -28 c21 -15 39 -29 42 -32 17 -17 80 -60 89 -60 5 0 14 -6 18 -14 4
-8 28 -25 53 -38 66 -35 93 -52 107 -65 16 -14 139 -73 153 -73 6 0 10 -4 10
-9 0 -5 35 -24 78 -41 42 -18 79 -36 82 -40 3 -4 57 -25 120 -46 63 -21 117
-41 120 -44 6 -7 242 -65 310 -75 25 -4 47 -11 50 -15 3 -5 68 -16 145 -26
196 -25 596 -25 790 0 77 10 142 21 145 25 3 5 27 11 53 15 70 11 290 65 297
74 3 4 59 25 125 47 66 21 125 44 132 51 7 6 46 24 88 39 41 15 75 31 75 35 0
4 35 25 78 46 42 21 79 41 82 45 3 3 29 19 59 35 29 16 63 39 75 51 11 13 25
23 29 23 5 0 23 11 41 25 18 14 37 25 42 26 15 0 74 80 74 100 0 10 5 19 10
19 6 0 10 20 10 45 0 25 -4 45 -8 45 -4 0 -13 15 -20 33 -38 105 -199 130
-292 46 -17 -16 -34 -29 -36 -29 -3 0 -20 -11 -38 -25 -18 -14 -38 -25 -44
-25 -6 0 -15 -6 -19 -14 -4 -8 -42 -31 -83 -52 -41 -21 -77 -41 -80 -45 -6 -9
-159 -79 -172 -79 -5 0 -16 -6 -23 -14 -8 -8 -54 -27 -102 -42 -49 -15 -90
-31 -93 -35 -7 -9 -230 -65 -297 -74 -29 -4 -53 -10 -53 -15 0 -17 -243 -35
-460 -34 -214 0 -408 16 -420 33 -3 4 -30 11 -60 15 -75 10 -303 65 -310 75
-3 4 -51 23 -107 41 -57 18 -103 36 -103 40 0 4 -38 22 -85 39 -47 18 -88 38
-92 45 -5 7 -43 29 -85 49 -43 20 -78 41 -78 45 0 5 -20 19 -45 32 -24 12 -52
30 -62 39 -10 9 -38 30 -61 48 l-44 31 179 4 178 3 31 28 c17 15 38 33 46 40
35 28 48 122 25 184 -14 36 -80 93 -108 93 -11 0 -19 5 -19 10 0 7 -142 10
-405 10 -231 0 -405 -4 -405 -9z"/>
</g>
</svg>
