<?xml version="1.0" standalone="no"?>
<!DOCTYPE svg PUBLIC "-//W3C//DTD SVG 20010904//EN"
 "http://www.w3.org/TR/2001/REC-SVG-20010904/DTD/svg10.dtd">
<svg version="1.0" xmlns="http://www.w3.org/2000/svg"
 width="583.000000pt" height="583.000000pt" viewBox="0 0 583.000000 583.000000"
 preserveAspectRatio="xMidYMid meet">

<g transform="translate(0.000000,583.000000) scale(0.100000,-0.100000)"
fill="#000000" stroke="none">
<path d="M3245 5820 c-11 -5 -36 -9 -56 -9 -73 -2 -337 -54 -349 -70 -3 -3
-34 -16 -70 -28 -93 -31 -134 -47 -140 -54 -3 -3 -40 -23 -84 -44 -43 -21 -87
-46 -96 -55 -10 -10 -35 -26 -54 -35 -20 -10 -41 -26 -47 -36 -5 -11 -15 -19
-22 -19 -24 0 -258 -226 -303 -292 -16 -24 -34 -46 -41 -51 -7 -4 -24 -30 -39
-57 -15 -28 -30 -50 -35 -50 -4 0 -21 -30 -39 -67 -18 -37 -38 -72 -45 -79 -6
-7 -27 -54 -45 -106 -19 -51 -37 -95 -40 -98 -11 -8 -47 -157 -61 -245 -7 -44
-17 -83 -23 -87 -17 -11 -15 -470 2 -475 6 -3 12 -17 12 -32 0 -70 40 -132 97
-153 18 -7 33 -16 33 -20 0 -4 20 -8 45 -8 25 0 45 5 45 10 0 6 7 10 16 10 9
0 33 12 55 28 61 43 74 94 58 234 -13 118 -8 309 11 413 16 90 41 189 49 195
4 3 20 40 35 83 16 43 33 84 40 90 6 7 26 41 44 75 18 34 44 74 57 88 14 15
25 33 25 40 0 7 14 24 30 37 17 14 30 29 30 34 0 12 136 143 148 143 7 0 18
10 26 23 9 12 38 36 66 52 27 16 50 32 50 36 0 4 30 22 68 40 37 18 73 38 79
45 12 12 197 74 220 74 6 0 13 4 15 10 7 21 192 44 363 44 169 0 355 -24 355
-45 0 -5 6 -9 13 -9 22 0 207 -62 220 -73 6 -7 42 -27 80 -45 37 -18 67 -37
67 -41 0 -5 14 -15 32 -24 35 -17 78 -52 179 -146 38 -36 72 -67 76 -70 5 -3
13 -13 18 -22 38 -60 69 -105 77 -107 5 -2 20 -25 33 -52 13 -26 30 -54 38
-61 7 -8 29 -52 48 -99 19 -47 37 -87 41 -90 13 -10 48 -162 60 -262 7 -54 16
-98 20 -98 4 0 8 -54 8 -120 0 -73 -4 -120 -10 -120 -6 0 -10 -28 -10 -65 0
-37 4 -65 10 -65 6 0 10 -6 10 -14 0 -25 62 -91 98 -104 42 -15 129 -10 159 8
11 7 30 29 44 49 13 20 27 39 32 42 11 8 27 161 27 270 0 114 -18 301 -29 309
-5 3 -11 28 -15 55 -15 98 -63 265 -77 265 -5 0 -9 7 -9 15 0 8 -6 29 -14 47
-8 18 -20 48 -27 66 -7 19 -17 39 -23 45 -6 7 -26 41 -45 76 -18 35 -40 71
-48 80 -8 9 -27 35 -42 59 -15 24 -43 62 -62 84 -51 61 -224 230 -264 258 -19
14 -49 37 -65 51 -17 14 -48 34 -70 44 -22 10 -40 21 -40 26 0 4 -35 24 -77
45 -43 21 -80 41 -83 45 -3 4 -48 22 -100 40 -52 18 -97 35 -100 39 -8 11
-127 37 -245 55 -60 8 -135 20 -166 25 -67 12 -226 12 -254 0z"/>
<path d="M846 5178 c-17 -6 -41 -24 -55 -41 -13 -16 -31 -36 -40 -44 -9 -10
-16 -43 -19 -94 l-5 -79 -63 0 c-35 0 -64 -4 -64 -9 0 -5 -12 -11 -27 -15 -75
-16 -123 -105 -109 -199 6 -37 16 -56 49 -89 47 -46 79 -58 158 -58 l56 0 5
-81 c3 -44 9 -84 14 -87 6 -4 22 -23 37 -43 59 -79 205 -79 264 0 15 20 31 39
37 43 5 3 11 43 14 87 l5 81 56 0 c77 0 110 11 154 54 58 55 73 134 40 204
-22 46 -59 80 -95 88 -16 4 -28 10 -28 15 0 5 -29 9 -64 9 l-63 0 -5 78 c-3
60 -9 83 -24 98 -10 10 -28 31 -39 45 -35 44 -122 61 -189 37z"/>
<path d="M3315 5093 c-11 -3 -22 -8 -25 -12 -3 -4 -22 -20 -42 -35 -46 -34
-58 -72 -58 -183 l0 -81 -31 -11 c-37 -13 -101 -68 -163 -142 -32 -38 -66
-139 -73 -213 -9 -108 24 -245 72 -304 20 -24 78 -84 106 -108 48 -43 173 -83
257 -84 23 0 42 -4 42 -10 0 -5 6 -10 14 -10 8 0 22 -10 30 -22 36 -50 6 -133
-50 -144 -42 -8 -68 1 -102 36 -40 40 -118 49 -187 22 -43 -16 -54 -26 -78
-73 -24 -45 -28 -62 -23 -102 3 -26 15 -66 28 -88 21 -38 88 -89 136 -104 21
-6 22 -12 22 -98 0 -149 48 -214 167 -224 48 -4 66 -1 102 19 68 36 91 87 91
202 l1 91 55 25 c36 16 68 41 92 70 20 25 42 50 48 55 17 15 64 139 64 169 0
14 5 26 10 26 6 0 10 28 10 65 0 36 -4 65 -9 65 -4 0 -11 18 -14 39 -7 55 -49
143 -89 186 -18 20 -36 43 -41 50 -4 8 -33 26 -65 42 -31 15 -63 33 -69 40
-16 14 -46 21 -147 32 -96 11 -111 23 -111 91 0 66 19 85 85 85 44 0 54 -4 80
-32 76 -81 253 -37 276 70 4 15 10 27 15 27 5 0 9 20 9 45 0 25 -3 45 -8 45
-4 0 -13 15 -21 33 -16 38 -60 87 -77 87 -6 0 -14 6 -17 14 -3 8 -22 20 -41
27 l-36 13 0 77 c0 126 -10 149 -90 213 -25 20 -105 30 -145 19z"/>
<path d="M399 3810 c-79 -24 -119 -89 -119 -195 l0 -65 -65 0 c-127 0 -195
-57 -203 -168 -8 -120 67 -192 200 -192 l68 0 0 -61 c0 -91 16 -135 64 -169
22 -17 48 -30 58 -30 10 0 18 -4 18 -10 0 -5 20 -10 45 -10 25 0 45 5 45 10 0
6 6 10 13 10 8 0 32 13 54 29 46 33 63 79 63 170 l0 61 61 0 c91 0 137 17 170
63 16 22 29 46 29 54 0 7 5 13 10 13 6 0 10 23 10 50 0 28 -4 50 -10 50 -5 0
-10 5 -10 11 0 6 -13 30 -29 53 -34 50 -76 66 -170 66 l-61 0 0 68 c0 149
-106 233 -241 192z"/>
<path d="M2040 3454 c-67 -13 -145 -36 -150 -43 -3 -5 -31 -21 -63 -36 -32
-15 -61 -33 -64 -41 -3 -8 -11 -14 -18 -14 -16 0 -145 -139 -145 -156 0 -7 -9
-18 -19 -24 -11 -5 -35 -35 -53 -65 -18 -30 -36 -55 -39 -55 -4 0 -18 -19 -32
-42 -14 -24 -36 -56 -50 -72 -14 -16 -36 -49 -48 -73 -12 -24 -26 -43 -30 -43
-5 0 -17 -17 -27 -37 -25 -51 -44 -84 -60 -101 -7 -8 -26 -40 -42 -72 -16 -32
-33 -60 -37 -62 -4 -1 -23 -34 -41 -71 -19 -38 -41 -77 -50 -87 -8 -10 -26
-45 -40 -77 -13 -32 -28 -60 -32 -63 -5 -3 -25 -43 -45 -90 -21 -47 -41 -87
-44 -90 -5 -4 -19 -36 -61 -147 -7 -18 -16 -33 -20 -33 -4 0 -10 -10 -13 -22
-9 -38 -60 -173 -68 -178 -8 -6 -79 -226 -79 -246 0 -7 -4 -14 -9 -16 -9 -3
-71 -209 -71 -234 0 -8 -4 -14 -9 -14 -4 0 -23 -66 -41 -147 -18 -82 -36 -150
-40 -153 -3 -3 -17 -63 -30 -133 -17 -99 -21 -148 -17 -210 6 -78 31 -176 48
-187 5 -3 15 -23 24 -43 13 -32 89 -115 166 -181 31 -27 134 -66 190 -73 27
-3 49 -10 49 -14 0 -12 1277 -12 1284 0 3 4 25 11 49 14 59 8 149 43 178 68
13 12 41 32 61 45 20 13 39 32 43 44 3 11 15 25 25 30 11 6 34 40 52 77 18 37
43 78 56 91 12 14 22 31 22 38 0 7 10 21 23 31 12 10 35 35 51 56 16 20 34 37
40 37 6 0 27 15 46 33 19 18 65 46 103 62 37 16 67 32 67 36 0 4 12 10 28 13
60 15 227 69 232 77 3 4 45 21 95 38 49 17 91 35 94 39 7 9 163 72 179 72 7 0
12 4 12 9 0 4 35 23 78 42 42 18 82 38 88 44 6 5 44 26 85 45 41 19 80 41 87
48 8 7 38 24 68 38 30 14 54 29 54 34 0 4 8 10 18 13 25 9 104 55 111 65 3 5
27 20 52 34 77 43 91 52 122 80 17 15 43 32 59 39 15 6 28 15 28 19 0 5 17 18
38 31 20 12 46 30 57 41 24 22 114 88 119 88 3 0 18 12 34 28 16 15 50 45 77
67 136 114 175 149 368 339 86 85 157 157 157 161 0 4 35 42 78 85 74 76 209
220 262 280 32 36 63 93 80 150 8 25 19 48 25 52 6 4 10 57 10 133 0 76 -4
129 -10 133 -6 4 -17 27 -25 52 -30 99 -77 164 -179 251 -36 31 -138 78 -186
86 -19 3 -35 10 -35 14 0 5 -49 9 -110 9 -67 0 -110 -4 -110 -10 0 -5 -9 -10
-20 -10 -30 0 -130 -40 -151 -61 -11 -11 -22 -19 -25 -19 -9 0 -75 -51 -114
-87 -19 -18 -40 -33 -46 -33 -7 0 -21 -11 -31 -23 -10 -13 -39 -36 -63 -52
-25 -15 -49 -32 -55 -39 -15 -17 -93 -66 -105 -66 -6 0 -13 -6 -16 -14 -3 -7
-25 -24 -49 -36 -24 -13 -52 -30 -63 -39 -21 -19 -50 -36 -117 -69 -27 -14
-52 -28 -55 -32 -3 -4 -36 -22 -75 -41 -38 -18 -72 -36 -75 -40 -3 -3 -39 -21
-80 -39 -41 -18 -77 -36 -80 -39 -7 -9 -199 -81 -216 -81 -8 0 -14 -4 -14 -9
0 -5 -46 -24 -102 -42 -57 -18 -105 -35 -108 -39 -3 -3 -68 -22 -145 -41 -77
-19 -142 -37 -145 -40 -6 -8 -178 -41 -337 -65 -68 -10 -123 -22 -123 -26 0
-5 -14 -8 -31 -8 -29 0 -31 2 -24 27 3 15 11 52 17 83 5 30 13 57 17 60 4 3
18 60 31 128 18 100 22 143 17 230 -5 95 -28 208 -46 222 -3 3 -18 30 -33 61
-25 50 -94 129 -171 197 -29 26 -115 72 -134 72 -6 0 -13 5 -15 11 -9 28 -265
59 -348 43z m214 -376 c7 -7 33 -25 58 -39 30 -18 51 -40 68 -75 14 -27 30
-52 35 -56 13 -10 13 -207 0 -216 -6 -4 -26 -83 -45 -177 -18 -93 -36 -172
-40 -175 -4 -3 -18 -60 -31 -128 -20 -107 -21 -128 -11 -170 14 -52 58 -98
105 -108 15 -4 27 -10 27 -15 0 -11 87 -12 92 -1 2 5 107 23 233 41 127 18
232 37 235 41 3 4 28 10 55 14 87 12 320 59 325 66 3 3 73 23 155 44 83 21
152 42 155 46 3 4 51 22 108 39 56 18 102 36 102 42 0 5 5 9 12 9 20 0 182 63
195 76 7 7 50 26 95 44 45 17 85 35 88 39 3 4 37 23 75 42 39 18 72 37 75 40
3 4 29 19 57 34 29 14 58 31 66 38 7 7 28 20 47 31 71 38 105 58 110 65 3 4
27 19 53 35 27 15 51 34 54 42 3 8 10 14 16 14 5 0 25 11 43 25 18 14 36 25
41 25 4 0 19 12 33 26 13 15 32 29 41 33 17 6 88 64 140 112 15 15 34 29 41
33 7 4 24 13 38 21 14 8 51 15 82 15 115 0 173 -62 173 -182 -1 -43 -6 -65
-23 -87 -12 -17 -22 -32 -22 -34 0 -3 -37 -43 -82 -89 -46 -46 -132 -138 -193
-202 -146 -157 -327 -334 -450 -440 -22 -19 -56 -49 -77 -68 -20 -18 -43 -37
-51 -43 -8 -5 -27 -19 -43 -30 -16 -11 -44 -35 -63 -52 -19 -18 -39 -33 -46
-33 -6 0 -25 -13 -41 -30 -16 -16 -33 -30 -37 -30 -5 0 -23 -11 -41 -25 -18
-14 -36 -25 -39 -25 -3 0 -18 -11 -32 -24 -14 -13 -41 -32 -60 -41 -19 -9 -35
-19 -35 -24 0 -4 -18 -17 -41 -29 -77 -41 -104 -57 -117 -69 -7 -7 -36 -24
-65 -38 -28 -15 -54 -30 -57 -34 -3 -3 -36 -22 -75 -40 -38 -19 -72 -37 -75
-41 -3 -4 -43 -24 -90 -45 -47 -20 -87 -40 -90 -44 -3 -4 -43 -22 -90 -41 -47
-18 -87 -37 -90 -41 -3 -4 -48 -22 -100 -40 -52 -17 -97 -35 -100 -39 -4 -6
-151 -54 -232 -77 -10 -2 -18 -9 -18 -14 0 -5 -5 -9 -11 -9 -17 0 -142 -61
-157 -77 -8 -7 -28 -21 -45 -29 -18 -9 -43 -27 -57 -40 -126 -120 -158 -153
-174 -179 -11 -16 -25 -33 -32 -37 -6 -4 -22 -27 -34 -50 -12 -24 -27 -47 -33
-53 -7 -5 -18 -23 -25 -38 -24 -55 -61 -94 -101 -105 -54 -17 -1228 -17 -1282
0 -25 7 -49 24 -66 47 -15 20 -32 39 -37 43 -14 9 -13 167 0 176 6 4 25 79 43
167 18 88 36 162 40 165 4 3 13 28 20 55 23 99 64 240 71 245 4 3 22 55 40
115 19 61 38 113 43 116 4 3 14 26 22 50 25 78 46 134 54 139 4 3 24 49 45
102 21 53 41 98 45 100 4 2 22 37 40 78 18 41 36 77 40 80 4 3 22 40 41 83 18
42 37 77 41 77 4 0 22 32 40 70 17 39 35 70 39 70 4 0 18 21 32 48 36 68 51
94 69 114 9 11 27 39 39 63 13 25 27 45 31 45 4 0 21 25 38 55 17 30 36 55 41
55 6 0 10 5 10 11 0 6 11 25 25 43 14 18 25 38 25 44 0 6 8 17 19 24 10 7 33
34 50 61 18 26 35 47 39 47 4 0 15 14 24 30 10 17 37 39 65 52 26 13 50 26 53
29 17 22 180 20 204 -3z"/>
</g>
</svg>
