<svg xmlns="http://www.w3.org/2000/svg" width="81" height="80" viewBox="0 0 81 80" fill="none"><rect x="0.97998" width="80" height="80" rx="40" fill="#5289DF"></rect><rect x="0.97998" width="80" height="80" rx="40" fill="url(#paint0_linear_30_1628)" fill-opacity="0.2"></rect><path d="M39.9081 54.1641C31.3534 41.8594 29.83 40.5703 29.83 36C29.83 29.7891 34.8104 24.75 41.08 24.75C47.2909 24.75 52.33 29.7891 52.33 36C52.33 40.5703 50.7479 41.8594 42.1932 54.1641C41.6659 54.9844 40.4354 54.9844 39.9081 54.1641ZM41.08 40.6875C43.6581 40.6875 45.7675 38.6367 45.7675 36C45.7675 33.4219 43.6581 31.3125 41.08 31.3125C38.4432 31.3125 36.3925 33.4219 36.3925 36C36.3925 38.6367 38.4432 40.6875 41.08 40.6875Z" fill="white"></path><defs><linearGradient id="paint0_linear_30_1628" x1="31.0396" y1="62" x2="62.0396" y2="27" gradientUnits="userSpaceOnUse"><stop></stop><stop offset="1" stop-opacity="0"></stop></linearGradient></defs></svg>