<?xml version="1.0" standalone="no"?>
<!DOCTYPE svg PUBLIC "-//W3C//DTD SVG 20010904//EN"
 "http://www.w3.org/TR/2001/REC-SVG-20010904/DTD/svg10.dtd">
<svg version="1.0" xmlns="http://www.w3.org/2000/svg"
 width="630.000000pt" height="574.000000pt" viewBox="0 0 630.000000 574.000000"
 preserveAspectRatio="xMidYMid meet">

<g transform="translate(0.000000,574.000000) scale(0.100000,-0.100000)"
fill="#000000" stroke="none">
<path d="M490 5731 c-121 -5 -141 -9 -192 -34 -72 -36 -123 -91 -143 -159 -14
-48 -14 -60 1 -133 29 -143 16 -209 -107 -540 -30 -80 -34 -102 -34 -190 0
-139 27 -196 162 -337 127 -133 138 -149 152 -233 40 -235 143 -415 381 -670
68 -72 192 -228 317 -397 160 -217 223 -295 290 -356 l85 -77 -8 -55 c-4 -30
-8 -95 -8 -145 -1 -78 3 -98 27 -150 15 -32 45 -82 67 -110 44 -56 179 -178
315 -283 105 -81 170 -147 223 -231 36 -55 51 -94 97 -256 21 -76 64 -144 124
-196 96 -85 206 -120 450 -144 274 -26 284 -29 353 -91 33 -30 90 -68 126 -86
58 -29 76 -33 165 -35 l99 -3 67 -45 c36 -25 98 -68 136 -95 49 -35 102 -60
177 -85 216 -73 304 -162 367 -374 19 -62 31 -82 75 -127 90 -90 88 -89 626
-75 1048 28 1032 27 1112 99 106 96 110 222 14 482 -63 170 -62 179 20 238
192 136 241 187 265 275 15 56 -2 136 -43 205 -39 64 -163 201 -273 301 -109
101 -697 538 -2403 1790 -454 333 -721 535 -733 555 -18 30 -19 61 -19 723 0
419 -4 722 -10 770 -20 149 -79 224 -205 259 -54 16 -151 18 -1020 19 -528 1
-1021 -1 -1095 -4z m1963 -767 c4 -224 4 -537 1 -698 -7 -318 -3 -360 51 -466
48 -95 126 -159 755 -618 646 -471 1312 -961 1965 -1445 372 -276 445 -335
607 -486 l70 -66 -56 -39 c-114 -78 -200 -195 -225 -307 -25 -105 -2 -263 53
-386 l25 -53 -599 0 -598 0 -45 93 c-53 108 -150 227 -240 294 -34 25 -118 73
-187 108 -69 34 -199 103 -290 152 -194 104 -267 137 -535 239 -288 110 -264
104 -454 101 -165 -2 -167 -2 -224 26 -71 35 -100 76 -122 170 -54 233 -175
396 -435 589 -233 173 -273 241 -234 404 15 65 16 83 5 123 -17 65 -72 143
-133 191 -134 105 -207 191 -286 338 -76 139 -126 203 -302 388 -231 242 -287
333 -350 564 -44 162 -83 230 -201 356 -121 128 -127 164 -51 330 79 172 94
230 100 377 l4 127 963 0 962 0 6 -406z"/>
</g>
</svg>
