<svg xmlns="http://www.w3.org/2000/svg" width="100" height="100" viewBox="0 0 100 100" fill="none"><g clip-path="url(#clip0_140_4)"><path d="M16.8003 17.0997C18.5003 19.1997 20.5003 21.2997 22.7003 22.8997C23.2003 23.1997 23.8003 22.4997 23.3003 22.0997C21.2003 20.2997 19.2003 18.5997 17.4003 16.3997C17.1003 15.8997 16.4003 16.5997 16.8003 17.0997Z" fill="#2C5697"></path><path d="M10.1 34.3994C11.9999 34.6994 13.9 35.0994 15.8 35.2994C16.4999 35.3994 16.5999 34.2994 15.9999 34.0994C14.2 33.6994 12.3 33.4994 10.5 33.1994C9.59995 33.0994 9.29995 34.2994 10.1 34.3994Z" fill="#2C5697"></path><path d="M7.50026 49.6C9.20026 49.8 10.9003 50 12.6003 50.1C13.3003 50.1 13.3003 49.1 12.6003 49C10.9003 48.8 9.20026 48.7 7.50026 48.6C6.80026 48.6 6.90026 49.5 7.50026 49.6Z" fill="#2C5697"></path><path d="M10.3999 69.6995C12.8999 68.4995 15.3999 67.3995 17.7999 66.0995C18.3999 65.7995 17.8999 64.8995 17.2999 65.1995C14.7999 66.2995 12.3999 67.6995 9.89989 68.8995C9.39989 69.0995 9.89989 69.8995 10.3999 69.6995Z" fill="#2C5697"></path><path d="M20.3004 80.2994C21.7004 78.7994 23.2004 77.2994 24.4004 75.6994C24.8004 75.1994 24.2004 74.5994 23.7004 74.9994C22.3004 76.4994 21.0004 78.0994 19.7004 79.6994C19.4004 80.0994 19.9004 80.5994 20.3004 80.2994Z" fill="#2C5697"></path><path d="M30.6003 90.1997C31.1003 87.5997 32.2003 85.2997 33.8003 83.1997C34.3003 82.4997 33.4003 81.5997 32.9003 82.2997C31.1003 84.4997 29.9003 87.0997 29.5003 89.8997C29.3003 90.6997 30.5003 90.9997 30.6003 90.1997Z" fill="#2C5697"></path><path d="M44.9999 93.9997C44.6999 92.1997 44.3999 90.2997 44.0999 88.4997C43.8999 87.6997 42.6999 87.9997 42.8999 88.7997C43.1999 90.5997 43.4999 92.4997 43.8999 94.2997C43.8999 95.1997 45.0999 94.7997 44.9999 93.9997Z" fill="#2C5697"></path><path d="M60.1 94.0995C59.5 92.6995 59 91.1996 58.3 89.7996C58 89.1996 57 89.5995 57.2 90.1995C57.7 91.6995 58.4 93.0995 59.1 94.4995C59.3 95.0996 60.3 94.6995 60.1 94.0995Z" fill="#2C5697"></path><path d="M75.2002 95.8001C73.7002 92.7001 72.3002 89.5001 70.7002 86.5001C70.3002 85.8001 69.4002 86.4001 69.7002 87.1001C71.1002 90.2001 72.7002 93.3001 74.2002 96.4001C74.5002 97.1001 75.5002 96.5001 75.2002 95.8001Z" fill="#2C5697"></path><path d="M82.5999 86.3998C81.4999 85.0998 80.4999 83.8998 79.2999 82.6998C78.6999 82.0998 77.8999 82.9998 78.3999 83.5998C79.3999 84.8998 80.4999 86.0998 81.5999 87.2998C82.2999 87.8998 83.0999 86.9998 82.5999 86.3998Z" fill="#2C5697"></path><path d="M96.3005 73.8993C94.6005 72.9993 92.9005 71.8993 91.0005 71.1993C90.4005 70.9993 90.1005 71.8993 90.6005 72.1993C92.2005 73.2993 94.0005 74.0993 95.7005 74.9993C96.3005 75.2993 97.0005 74.2993 96.3005 73.8993Z" fill="#2C5697"></path><path d="M102.4 62.6997C99.9003 62.7997 97.6003 62.2997 95.2003 61.7997C94.4003 61.5997 94.1003 62.6997 94.9003 63.0997C97.2003 64.0997 100 64.1997 102.5 63.8997C103.2 63.7997 103.2 62.6997 102.4 62.6997Z" fill="#2C5697"></path><path d="M101.5 45.1999C99.4999 45.2999 97.2999 45.1999 95.3999 45.7999C94.7999 45.9999 94.9999 46.6999 95.4999 46.7999C97.4999 46.9999 99.4999 46.5999 101.5 46.3999C102.2 46.2999 102.3 45.0999 101.5 45.1999Z" fill="#2C5697"></path><path d="M99.2 26.8998C97.4 28.6998 95.3 29.7998 93 30.6998C92.1 31.0998 92.4 32.4998 93.4 32.1998C96 31.3998 98.3 29.6998 100.1 27.7998C100.7 27.2998 99.8 26.2998 99.2 26.8998Z" fill="#2C5697"></path><path d="M89.1004 18.1C88.4004 19.1 87.6004 20.1 86.8004 21.1C86.2004 21.8 87.3004 22.6 87.8004 21.9C88.5004 20.8 89.1004 19.7 89.9004 18.6C90.2004 18 89.5004 17.6 89.1004 18.1Z" fill="#2C5697"></path><path d="M79.6003 10.8997C78.7003 12.1997 78.0003 13.6997 77.8003 15.2997C77.7003 16.0997 78.9003 16.4997 79.1003 15.5997C79.4003 14.0997 79.8003 12.6997 80.7003 11.3997C81.1003 10.7997 80.0003 10.1997 79.6003 10.8997Z" fill="#2C5697"></path><path d="M64.0003 6.79968C63.7003 8.39968 63.2003 10.0997 63.2003 11.7997C63.2003 12.3997 64.0003 12.3997 64.1003 11.8997C64.6003 10.3997 64.7003 8.69968 65.0003 7.09968C65.1003 6.39968 64.1003 6.09968 64.0003 6.79968Z" fill="#2C5697"></path><path d="M52.9 3.79968C52.9 5.59968 52.8 7.39968 52.8 9.19968C52.8 9.99968 54 9.99968 54 9.19968C54 7.39968 53.9 5.59968 53.9 3.79968C53.9 3.09968 52.9 3.09968 52.9 3.79968Z" fill="#2C5697"></path><path d="M39.7005 8.29949C39.8005 10.1995 40.1005 12.0995 40.7005 13.8995C41.0005 14.6995 42.2005 14.3995 42.0005 13.4995C41.5005 11.7995 41.1005 9.99949 40.9005 8.19949C40.8005 7.59949 39.7005 7.59949 39.7005 8.29949Z" fill="#2C5697"></path><path d="M27.8005 8.6997C28.2005 10.7997 29.2005 12.7997 30.7005 14.3997C31.2005 14.9997 32.1005 14.0997 31.6005 13.4997C30.3005 11.9997 29.4005 10.2997 28.8005 8.3997C28.6005 7.7997 27.7005 8.0997 27.8005 8.6997Z" fill="#2C5697"></path><g clip-path="url(#clip1_140_4)"><path d="M56.1169 70.4002L53.3124 62.6947C52.3547 60.0636 53.7294 57.1157 56.3605 56.158C58.9916 55.2004 61.9396 56.575 62.8972 59.2061L65.7018 66.9116L76.2733 63.0639L69.9802 45.7736L39.2522 56.9576L45.5454 74.2479L56.1169 70.4002Z" stroke="#2C5697" stroke-width="2" stroke-miterlimit="10"></path><path d="M60.9509 36.0235L39.8548 43.7019L44.0446 55.2131L65.1407 47.5347L60.9509 36.0235Z" stroke="#2C5697" stroke-width="2" stroke-miterlimit="10"></path><path d="M50.4267 39.8541L36.9891 44.7449L45.1767 25.4298L63.8643 34.9632L50.4267 39.8541Z" stroke="#2C5697" stroke-width="2" stroke-miterlimit="10"></path><path d="M50.4267 39.8542L56.3607 56.1578" stroke="#2C5697" stroke-width="2" stroke-miterlimit="10"></path><path d="M54.0134 64.6205L43.4418 68.4682" stroke="#2C5697" stroke-width="2" stroke-miterlimit="10"></path><path d="M74.1698 57.2843L63.5982 61.132" stroke="#2C5697" stroke-width="2" stroke-miterlimit="10"></path></g></g><defs><clipPath id="clip0_140_4"><rect width="100" height="100" fill="white"></rect></clipPath><clipPath id="clip1_140_4"><rect width="50" height="50" fill="white" transform="translate(21 32.101) rotate(-20)"></rect></clipPath></defs></svg>